CoelacanthPearl.sfdir
StartChar: ampersand
Encoding: 38 38 78
Width: 676
Flags: HW
LayerCount: 2
Fore
SplineSet
209.3116 350.8605 m 1
 143.479865928 322.7645625 104.53715 269.38228125 104.53715 216 c 3
 104.53715 122.289970589 155.261391177 64.279 238.3442 64.279 c 3
 303.012825001 64.279 340.8901625 126.394019 371.3768 166.1069 c 1
 309.721560868 301.650428972 242.781586956 337.047146728 209.3116 350.8605 c 1
197 570.2373 m 1
 177.986805768 570.2373 149.16035 553.191360869 149.16035 525 c 3
 149.16035 478.745448183 191.087595283 458.362086364 218.60235 438.7627 c 1
 251.163327344 460.635084416 267.0652 480.887292208 267.0652 501.1395 c 3
 267.0652 535.010970589 238.125226087 570.2373 197 570.2373 c 1
646.8279 439.0652 m 1
 599.958799397 439.0652 562.650227766 426.676302099 551.94655 397.63495 c 0
 523.161944737 320.270728847 498.375201316 257.469184616 460.7953 184.6558 c 1
 492.507380769 90.4196421428 525.766392307 60.19295 551.29075 60.19295 c 3
 585.176104605 60.19295 608.071614473 103.59500625 620.8931 131.05345 c 1
 672 108 l 1
 640 35.093470354 616 -11.39765 530 -11.39765 c 3
 477 -11.39765 433 34.1539207964 406 91.5489 c 1
 374 65.6962361345 332 -11 199 -11 c 3
 80 -11 17 85 17 172 c 3
 17 278.525383496 77.3272286185 352.67540534 146.15125 387.1395 c 1
 110.614204546 411.283039062 81 452.141335938 81 506 c 3
 81 593 156 626 231 653 c 1
 316 623 351 575 351 498 c 3
 351 482.886254546 316.273042857 432.821972727 283.7627 404.4837 c 1
 332.080175 385.848685245 395.6558 322.651678688 426.1721 256.2138 c 1
 452.122881632 302.219161454 483.595626296 378.555744833 493.0978 421.97915 c 0
 499.9102 453.313633674 454.4942 472.596392857 431.7862 481.0326 c 1
 448.2699 531.39765 l 1
 500.971423636 509.34667069 592.571690909 490.052063793 655.3116 491.43025 c 1
 646.8279 439.0652 l 1
EndSplineSet
Position2: "cpsp-1" dx=0 dy=0 dh=50 dv=100
Substitution2: "smcp-1" ampersand.smcp
Substitution2: "pcap-1" ampersand.pcap
EndChar
StartChar: five
Encoding: 53 53 68
Width: 488
Flags: HW
LayerCount: 2
Fore
SplineSet
102.69921875 509.0390625 m 1
 256.250976562 501.951171875 290.1796875 505.631835938 320.098632812 507.995117188 c 0
 351.400390625 510.466796875 375.683163167 548.040321315 385.01953125 570.239257812 c 1
 385.01953125 570.239257812 430.492422805 539.563581069 433.568359375 537.970703125 c 1
 403.518498358 483.73894848 371.958984375 420.75390625 351.440429688 420.86328125 c 0
 269.734375 421.30078125 276.327148438 420.033203125 173.65234375 420.284179688 c 1
 173.65234375 420.284179688 174.005477924 321.940653026 173.424804688 308.461914062 c 1
 308.730213229 316.501947111 388.470703125 237.880778556 388.470703125 122.732421875 c 3
 388.470703125 -38.9668011996 223.587635937 -157.603482359 69 -177.099609375 c 1
 69 -177.099609375 69.3986299408 -115.162573757 66.654296875 -111.411132812 c 1
 131.620330966 -103.229801043 306.97265625 -47.8611458637 306.97265625 111.155273438 c 3
 306.97265625 149.161897424 280.474349454 235.799020386 97.517578125 227.197265625 c 1
 104.558112047 304.810418512 106.481445312 418.76171875 102.69921875 509.0390625 c 1
EndSplineSet
Substitution2: "case-1" five.proportionallining
Substitution2: "lnum-1" five.proportionallining
Substitution2: "tnum-1" five.tabulartext
Substitution2: "numr-1" five.numerator
Substitution2: "dnom-1" five.denom
EndChar
StartChar: seven
Encoding: 55 55 70
Width: 575
Flags: HW
LayerCount: 2
Fore
SplineSet
179.084960938 514.116210938 m 1
 179.7734375 513.083984375 194.768554688 507.251953125 206.2109375 506.977539062 c 0
 323.365234375 504.208007812 485.98828125 506.028320312 507.037109375 507.927734375 c 1
 507.037109375 507.927734375 525.509765625 455.395507812 529.170898438 451.54296875 c 1
 503.528320312 411.6328125 219.539176689 -134.829303124 209.734375 -172.337890625 c 1
 209.734375 -172.337890625 108.386322598 -172.113512823 106.305664062 -172.180664062 c 1
 203.195372184 20.1726928826 300.901367188 189.842773438 415.913085938 408.1015625 c 0
 419.330078125 414.3359375 414.325195312 421.909179688 404.180664062 422.647460938 c 0
 339.8515625 427.34375 330.202148438 427.350585938 282.171875 426.440429688 c 0
 162.384765625 424.583007812 136.880603498 413.700283927 110.012695312 343.680664062 c 1
 110.012695312 343.680664062 61.8106510239 368.984082824 57.427734375 370.1484375 c 1
 57.427734375 370.1484375 113.490234375 500.1171875 122.692382812 544.783203125 c 1
 179.084960938 514.116210938 l 1
EndSplineSet
Substitution2: "case-1" seven.proportionallining
Substitution2: "lnum-1" seven.proportionallining
Substitution2: "tnum-1" seven.tabulartext
Substitution2: "numr-1" seven.numerator
Substitution2: "dnom-1" seven.denom
EndChar
StartChar: at
Encoding: 64 64 874
Width: 838
Flags: HW
LayerCount: 2
Fore
SplineSet
618.203125 427.319335938 m 1
 590.682617188 356.012695312 567.024414062 272.900390625 552.802734375 195.2890625 c 0
 548.50390625 171.827148438 546.122070312 145.194335938 546.122070312 135.321289062 c 3
 546.122070312 107.881835938 553.170898438 96.34765625 565.099609375 96.34765625 c 3
 585.625976562 96.34765625 624.864257812 110.115234375 659.282226562 151.224609375 c 0
 698.348632812 197.884765625 731.095703125 269.311523438 731.095703125 357.23828125 c 3
 731.095703125 527.4140625 601.89453125 620.438476562 452.172851562 620.438476562 c 3
 241.623046875 620.438476562 118.604492188 452.116210938 118.604492188 216.438476562 c 3
 118.604492188 26.2255859375 270.193359375 -100.413085938 429.877929688 -100.413085938 c 3
 559.11328125 -100.413085938 668.90625 -38.2001953125 747.190429688 47.7666015625 c 1
 764.302734375 34.9677734375 773.955078125 27.748046875 791.067382812 14.94921875 c 1
 710.138671875 -81.8154296875 571.520507812 -173.741210938 416.772460938 -173.741210938 c 3
 215.852539062 -173.741210938 18.576171875 -23.3916015625 18.576171875 216.438476562 c 3
 18.576171875 474.852539062 222.891601562 684.966796875 474.172851562 684.966796875 c 3
 646.473632812 684.966796875 815.97265625 560.233398438 815.97265625 360.5390625 c 3
 815.97265625 242.875976562 732.8515625 147.876953125 688.967773438 100.206054688 c 0
 650.76953125 58.7109375 584.583007812 13.8896484375 519.184570312 13.8896484375 c 3
 460.630859375 13.8896484375 443.391601562 53.306640625 448.497070312 93.8720703125 c 1
 405.141601562 52.0556640625 347.629882812 19.888671875 313.123046875 19.888671875 c 3
 243.599609375 19.888671875 195.948242188 68.6171875 195.948242188 127.10546875 c 3
 195.948242188 261.28515625 291.228515625 386.209960938 377.918945312 427.131835938 c 0
 418.188476562 446.140625 467.838867188 450.052734375 533.553710938 464.948242188 c 0
 546.93359375 467.981445312 561.129882812 483.615234375 566.223632812 493.659179688 c 1
 643.852539062 497.609375 l 1
 635.065429688 473.868164062 626.836914062 450.647460938 618.203125 427.319335938 c 1
499.8359375 399.030273438 m 1
 493.870117188 401.009765625 477.76171875 402.990234375 472.392578125 402.990234375 c 3
 442.759765625 402.990234375 409.14453125 381.688476562 388.2734375 364.310546875 c 0
 347.942382812 330.73046875 306.616210938 262.802734375 306.616210938 172.883789062 c 3
 306.616210938 137.708007812 323.34375 106.350585938 365.03515625 106.350585938 c 3
 391.770507812 106.350585938 427.993164062 132.44140625 452.141601562 157.565429688 c 1
 463.313476562 203.2734375 477.748046875 255.158203125 490.126953125 305.318359375 c 0
 496.936523438 332.911132812 504.180664062 362.430664062 504.180664062 381.614257812 c 3
 504.180664062 389.778320312 502.923828125 395.943359375 499.8359375 399.030273438 c 1
EndSplineSet
Position2: "'case' vertical ajustments for all-caps-1" dx=0 dy=160 dh=0 dv=0
Position2: "cpsp-1" dx=0 dy=0 dh=50 dv=100
EndChar
StartChar: E
Encoding: 69 69 30
Width: 683
Flags: HW
AnchorPoint: "Ogonek" 517.65 23.6582 basechar 0
AnchorPoint: "Top" 349 679 basechar 0
AnchorPoint: "Bottom" 340 -15 basechar 0
LayerCount: 2
Fore
SplineSet
85 684 m 1
 149 681 253 679 349 679 c 3
 452 679 546 681 570 687 c 1
 592 671 599 660 599 647 c 3
 599 629 580 605 578 543 c 1
 519 538 l 1
 512 566 527 600 511 602 c 0
 463 608 393 612 332 612 c 3
 310 612 289 611 271 610 c 0
 263 609 257 606 257 595 c 0
 256 523 255 441 254 374 c 1
 299 376 457 374 462 375 c 0
 471 376 470 400 481 432 c 1
 547 419 l 1
 539 387 535 357 535 327 c 3
 535 307 538 286 543 262 c 1
 480 243 l 1
 463 286 472 306 464 306 c 0
 430 305 308 304 252 305 c 1
 252 218 251 153 253 95 c 0
 253 80 260 78 266 78 c 0
 305 78 342 77 377 77 c 3
 415 77 450 78 484 79 c 0
 522 81 532 100 568 164 c 1
 627 141 l 1
 612 80 603 57 591 0 c 1
 500 -3 404 1 313 1 c 3
 233 1 158 0 97 -14 c 1
 85 51 l 1
 123 59 143 67 143 75 c 1
 143 113 144 225 144 346 c 3
 144 474 143 591 143 602 c 0
 143 608 117 608 82 611 c 1
 85 684 l 1
EndSplineSet
Position2: "cpsp-1" dx=0 dy=0 dh=50 dv=100
Substitution2: "c2pc-1" e.pcap
Substitution2: "c2sc-1" e.smcp
EndChar
StartChar: H
Encoding: 72 72 33
Width: 870
Flags: HW
AnchorPoint: "Top" 447 679 basechar 0
AnchorPoint: "Bottom" 444 -15 basechar 0
LayerCount: 2
Fore
SplineSet
58 687 m 1
 102 679 145 674 189 674 c 3
 223 674 257 678 296 684 c 1
 301 614 l 1
 282 610 247 609 242 607 c 1
 240 569 234 471 233 379 c 1
 651 379 l 1
 651 445 646 598 646 607 c 0
 641 613 622 613 590 617 c 1
 594 686 l 1
 629 681 658 677 686 677 c 3
 722 677 758 681 809 693 c 1
 824 623 l 1
 800 616 767 618 766 609 c 0
 760 502 757 359 757 232 c 3
 757 162 758 101 760 80 c 0
 761 71 792 71 824 71 c 1
 824 71 817 -6 817 -7 c 1
 776 -2 737 0 698 0 c 3
 668 0 637 -2 603 -8 c 1
 600 13 596 39 593 66 c 1
 626 68 646 68 647 83 c 0
 652 169 651 227 651 312 c 1
 235 311 l 1
 235 231 232 137 235 81 c 0
 236 60 279 70 298 68 c 1
 298 68 291 -8 291 -9 c 1
 246 -3 209 0 173 0 c 3
 135 0 98 -2 58 -7 c 1
 58 -7 46 67 46 69 c 1
 75 69 120 66 120 75 c 0
 125 191 125 340 125 463 c 3
 125 535 123 589 119 602 c 0
 116 613 90 613 53 615 c 1
 58 687 l 1
EndSplineSet
Position2: "cpsp-1" dx=0 dy=0 dh=50 dv=100
Substitution2: "c2pc-1" h.pcap
Substitution2: "c2sc-1" h.smcp
EndChar
StartChar: ordmasculine
Encoding: 186 186 1216
Width: 358
Flags: HW
LayerCount: 2
Fore
SplineSet
182 694 m 3
 280 694 338 614 338 538 c 3
 338 452 273.58974359 378 181 378 c 3
 94 378 22 440 22 529 c 3
 22 640 117.597484277 694 182 694 c 3
169 654 m 3
 112.377777778 654 78 604 78 549 c 3
 78 480 126 414 188 414 c 3
 247.641304348 414 281 469 281 524 c 3
 281 604 221 654 169 654 c 3
EndSplineSet
Refer: 1961 58113 N 0.237 0 0 1 60 320 2
Position2: "cpsp-1" dx=0 dy=0 dh=7 dv=14
EndChar
StartChar: germandbls
Encoding: 223 223 327
Width: 601
Flags: HW
LayerCount: 2
Back
SplineSet
312 756 m 0xfb
 411.877 756 454.845 679.623 454.845 588.779 c 0
 454.845 446.016 343 385.103 343 345 c 0xfb
 343 322 360.358 300 417 276 c 1
 495.85 246.667 539 186.985 539 128 c 0
 539 33.1543 458.812 -9 408 -9 c 0
 365.699560976 -9 332.401317073 2 300 16 c 1
 304 30 306 44 306 59 c 0
 306 68.3555 304.571 95.6445 301 105 c 1
 323 112 l 1xf7
 342.104493506 56.8506 380.314818182 31 426 31 c 0
 451.5 31 477 56.9092 477 106 c 0
 477 163.711 429.343 194.988 396 212 c 0
 347 237 276 253 276 324 c 0
 276 346 396.559 432.484 396.559 571.703 c 0
 396.559 648.474 347.395 705 278 705 c 0
 190.602 705 180.067 591.244 171 454 c 1
 167.34 417.394 165 295.325 165 249 c 0
 165 182.096 166.167 119.272 172 54 c 0
 172.739 39 177.174 34 189 33 c 0
 196.534 32 203.466 32 211 31 c 1
 208 -6 l 1
 182.625 -1 146.375 1 121 1 c 0
 97.2266 1 60.7734 -2 37 -6 c 1
 36 30 l 1
 47 31 61 31 72 33 c 1
 89.5947 40 91.8652 53 93 81 c 1
 97.375 120.633 100 172.459 100 222 c 0
 99.4055 259.124 99.1645 308.001 99.0667 356 c 1
 40 356 l 1
 40 386 l 1
 59.9402 389.935 79.0951 397.74 99.0097 401.801 c 1
 99 418.369 99 434.298 99 449 c 0
 99 579.533 140.062 647.199 205 704 c 0
 235.911 731 265.237 756 312 756 c 0xfb
EndSplineSet
Fore
SplineSet
298 749 m 3
 405.82001954 749 476 667.537974416 476 592 c 3
 476 503.909137818 386 421 386 391 c 3
 386 367.103448276 406 342.32183908 479 314 c 0
 571.461786704 278.127563779 599 212.946745562 599 151 c 3
 599 48.6338028169 506.409574468 -7 430 -7 c 3
 377.223021583 -7 337.64028777 3 299 13 c 1
 295 34 289.594368732 54.9408266935 285 81 c 0
 279.91713356 109.829923149 277 135 273 153 c 1
 331 169 l 1
 348.743801653 105.557522124 409.446280992 62 444 62 c 3
 479.675675676 62 499 96.7142857143 499 134 c 3
 499 172.4375 485.99211491 198.812735932 430 224 c 0
 376 248.291139241 291 270.835443038 291 372 c 3
 291 459.511627907 384 490.325581395 384 584 c 3
 384 639.590288703 322.404166713 670 266 670 c 3
 210 670 195.860016863 639.020118044 184 556 c 0
 175.463484157 496.244389097 170 357.867754667 170 304 c 3
 170 233 171.562297792 134.052789578 173 92 c 0
 175 72.5 179.973809326 66.9041331365 190 66 c 0
 195.142857143 65.3333333333 200.857142857 64.6666666667 206 64 c 1
 201 -5 l 1
 175.822368421 -1.66666666667 140.690789474 1 112 1 c 3
 86.7943925234 1 47.7663551402 -4 25 -7 c 1
 23 59 l 1
 28.6842105263 60 35.3079002117 60.1026334039 41 62 c 0
 60 65 67.106766919 68.9840225684 69 82 c 0
 81 137 87 214 87 280 c 3
 87 307 87 388 85 437 c 1
 65.6753246753 437 44.7402597403 437 23 437 c 1
 23 493 l 1
 42.9324324325 494 64.4594594595 497 82 499 c 1
 80 534 79 545 79 558 c 3
 79 614 126.291388649 655.63311092 178 697 c 0
 208 721 261 749 298 749 c 3
EndSplineSet
Substitution2: "pcap-1" uni1E9E.pcap
Substitution2: "smcp-1" uni1E9E.smcp
EndChar
StartChar: uni0190
Encoding: 400 400 1187
Width: 604
Flags: HW
LayerCount: 2
Fore
SplineSet
190 365 m 1
 112.853249713 393.582951861 75.9912109375 457.149360892 75.9912109375 521.239257812 c 0
 75.9912109375 609.621858825 153.293519379 699 298 699 c 3
 360 699 395 695 454 678 c 0
 495 667 512 673 527 678 c 1
 554 664 l 1
 516 604 517 567 517 545 c 0
 517 525 516 518 484 518 c 9
 469 555 481 593 447 614 c 0
 393 646 350 659 284 659 c 3
 216.570013704 659 174.142578125 603.044654777 174.142578125 539.03515625 c 0
 174.142578125 478.194100338 194 372.698661326 394 373 c 1
 394 360.358891404 393.205581613 348.017136253 391.797851562 336 c 1
 179.519459718 335.595283779 152.13671875 290.419319569 152.13671875 211.142578125 c 0
 152.13671875 127.565218888 221.30931019 33 303 33 c 3
 405 33 487 86 524 175 c 9
 551 167 l 1
 542 120 534 94 522 47 c 1
 459 16 382 -9 289 -9 c 3
 153.121018851 -9 42.4189453125 93.2334738441 42.4189453125 196.389648438 c 0
 42.4189453125 260.252462272 84.8481287359 324.468921415 190 365 c 1
EndSplineSet
Position2: "cpsp-1" dx=0 dy=0 dh=50 dv=100
EndChar
StartChar: uni01A3
Encoding: 419 419 1507
Width: 557
UnlinkRmOvrlpSave: 1
Flags: HW
LayerCount: 2
Fore
SplineSet
500 175 m 3
 500 89.859375 501.19140625 -22.3154296875 509 -103 c 0
 511 -118 531.338867188 -120.6328125 542 -124 c 0
 548.333007812 -126 555.458007812 -126.5 561 -127 c 1
 557 -161 l 1
 531.416015625 -156.63671875 493.551757812 -153 466 -153 c 3
 436 -153 400 -160 370 -164 c 1
 367 -131 l 1
 378 -130 394.181640625 -128.822265625 405 -126 c 0
 428 -120 429.774414062 -109.044921875 431 -81 c 0
 433 -14 434 85.32 434 155 c 3
 434 182.36 435.388027072 239.791566855 430 326 c 0
 429 342 424 355 407 355 c 3
 400.6 355 384.6 351 375 350 c 1
 370 382 l 1
 416.873239437 386.540540541 459.225585938 391.837890625 507 410 c 1
 527 394 l 1
 521 380 516.477539062 352.90234375 514 342 c 0
 504 298 500 192 500 175 c 3
235 371 m 3
 167.323216976 371 107.180664062 316.00363021 107.180664062 223.540039062 c 3
 107.180664062 120.253709448 177.826434932 25 264 25 c 3
 285.938476562 25 303.07421875 29.879138054 313.247070312 35.3681640625 c 1
 318.65945983 44.4950968477 322.010742188 153.28668175 322.010742188 208.404296875 c 3
 322.010742188 258.648419938 316.073522705 337.487393612 303.110351562 357.356445312 c 1
 283.62478018 365.458363748 262.337025657 371 235 371 c 3
258.436523438 416 m 3
 304.15422771 416 345.928497353 402.477677165 378.170898438 380.124023438 c 1
 376.158203125 322.656255568 369.18359375 265.188476562 369.18359375 207.721679688 c 3
 369.18359375 145.791015625 376.610351562 83.8593696575 379.357421875 21.9287109375 c 1
 345.639043415 -0.5986328125 301.514031234 -14.1611328125 251.623046875 -14.1611328125 c 3
 129.625165664 -14.1611328125 31 68.995869006 31 192.034179688 c 3
 31 333.604324776 148.380414706 416 258.436523438 416 c 3
EndSplineSet
Substitution2: "pcap-1" gha.pcap
Substitution2: "smcp-1" gha.smcp
EndChar
StartChar: uni01F7
Encoding: 503 503 1741
Width: 602
UnlinkRmOvrlpSave: 1
Flags: HW
LayerCount: 2
Fore
SplineSet
206.590820312 -167.23828125 m 0
 211.7109375 -189.657226562 233.03515625 -192.942382812 246.954101562 -193.538085938 c 0
 264.890625 -194.252929688 286.19140625 -195.68359375 301.88671875 -196.399414062 c 1
 298 -243 l 1
 246.8125 -237.66796875 206.125976562 -230 151 -230 c 3
 118.638671875 -230 64.861328125 -237.334960938 34.5 -245 c 1
 22 -206 l 1
 41.408203125 -199.806640625 54.7333984375 -195.568359375 74.9326171875 -190.043945312 c 0
 108 -181 111.229492188 -177.90625 111.909179688 -145.368164062 c 0
 113.305664062 -78.529296875 114.385742188 36.869140625 114.385742188 230.495117188 c 3
 114.385742188 379.66015625 108.794921875 526.196289062 105.295898438 550.831054688 c 0
 100.63671875 583.637695312 87.5908203125 597.002929688 74.544921875 597.002929688 c 3
 61.6337890625 597.002929688 31.9375 586.068359375 20.3173828125 586.068359375 c 1
 12 621.733398438 l 1
 54.0458984375 628.95703125 118.818359375 654.75390625 166.545898438 695 c 1
 183.181640625 687.75390625 192.885742188 690.60546875 192.885742188 595.002929688 c 1
 196.755859375 601.953125 419.303710938 694.626953125 440.591796875 695.78515625 c 1
 494.583007812 695.78515625 582 602.381835938 582 512.31640625 c 3
 582 390.803710938 269.866210938 155.58984375 162.38671875 105.34765625 c 1
 142.190429688 130.862304688 l 1
 248.8984375 176.538085938 502.568359375 391.065429688 502.568359375 475.930664062 c 3
 502.568359375 554.051757812 442.139648438 615.658203125 394.431640625 615.658203125 c 3
 350.495117188 615.658203125 194.272460938 577.918945312 194.272460938 541.541015625 c 0
 194.272460938 455.8671875 194.272460938 376.297851562 194.272460938 270.590820312 c 3
 194.272460938 154.939453125 199 -134 206.590820312 -167.23828125 c 0
EndSplineSet
EndChar
StartChar: uni021C
Encoding: 540 540 1739
Width: 485
UnlinkRmOvrlpSave: 1
Flags: HW
LayerCount: 2
Fore
SplineSet
281 353 m 1
 345.905273438 337.3984375 449 244.3984375 449 151 c 3
 449 -2.5634765625 193.696289062 -161.83984375 57 -175 c 1
 52 -140 l 1
 184.403320312 -128.6640625 356 13.625 356 135 c 3
 356 218.091796875 273.137695312 292.672851562 201 313 c 1
 281 353 l 1
95 294 m 1
 217.060546875 330.731445312 334 406.58984375 334 535 c 3
 334 589.651367188 274.817382812 644 226 644 c 3
 161.032226562 644 84.4619140625 595.852539062 56 515 c 1
 29 523 l 1
 38 570 46 596 58 643 c 1
 111.806640625 673.446289062 177.571289062 698 257 698 c 3
 342.772460938 698 422 615.584960938 422 555 c 3
 422 410.931640625 241.125 285.915039062 109 261 c 1
 95 294 l 1
EndSplineSet
EndChar
StartChar: uni0221
Encoding: 545 545 2583
Width: 624
Flags: HW
AnchorPoint: "TopRight" 503.5 581 basechar 0
AnchorPoint: "Top" 390 734 basechar 0
AnchorPoint: "Bottom" 224 -15 basechar 0
LayerCount: 2
Fore
SplineSet
361 53 m 1
 317 23 260 -5 197 -5 c 3
 97 -5 34 79 34 172 c 3
 34 252 79.5630586283 321.640322119 135 359 c 0
 181 390 237 405 267 405 c 3
 292 405 349 388 363 386 c 1
 363 504 361 562.992063992 361 626 c 0
 361 642 354 656 337 656 c 3
 331 656 306 650 296 649 c 1
 288 681 l 1
 340 692 399 720 442 754 c 1
 462 738 l 1
 456 724 449.413489624 696.954544586 448 686 c 0
 428 531 427 380.576072156 427 185 c 3
 427 110.480769231 413.720072356 30 497 30 c 3
 531.588235294 30 581 45.8902649863 581 86 c 3
 581 108.64565046 565.142857143 119 544 119 c 3
 529.198122065 119 511 101.085999848 511 77 c 3
 511 14.1876843181 568 -69 568 -69 c 1
 519 -88 l 1
 519 -88 466 11.7213114754 466 70 c 3
 466 117.344235991 508.293452508 155 553 155 c 3
 602.921875 155 624 120.470774048 624 95 c 3
 624 2.40296733057 513.075 -19 450 -19 c 3
 432.84867063 -19 378.442569201 -12.0942250748 361 53 c 1
228 359 m 3
 206 359 174.4998206 345.796757269 155 333 c 0
 123 312 98 278 98 226 c 3
 98 136 154 44 256 44 c 3
 296.196078431 44 331.490196078 59.1111111111 356 78 c 1
 353 113 362 142 362 306 c 0
 362 337 336 340 310 346 c 0
 284 352 238 359 228 359 c 3
EndSplineSet
EndChar
StartChar: uni0222
Encoding: 546 546 1749
Width: 618
UnlinkRmOvrlpSave: 1
Flags: HW
LayerCount: 2
Fore
SplineSet
241.771484375 618.404296875 m 1
 222.725312216 618.404296875 201.428710938 593.832327728 201.428710938 573.482421875 c 3
 201.428710938 512.534346586 264.811166812 487.026869029 330.124023438 476 c 0
 466.392566375 452.993574415 582 350.3513408 582 236.216796875 c 3
 582 90.0195062727 463.311284637 -7 305.713867188 -7 c 3
 165.943405299 -7 36 69.6120896794 36 214.11328125 c 3
 36 332.827374418 147.808024001 423.97973964 252 452.397460938 c 1
 268.490529486 464.685289361 284.790280065 472.67979361 300.42578125 476 c 1
 370.806542216 481.401787916 414.314453125 531.856160649 414.314453125 579.088867188 c 3
 414.314453125 615.245985302 392.724199369 679.503223464 341 687.33203125 c 1
 349 744.655273438 l 1
 424.947612627 741.612304688 510 700.469726562 510 599.005859375 c 3
 510 530.984898037 453.689357805 468.09270969 374 441.709960938 c 1
 356.446693614 428.538253115 337.759061186 419.38154818 318.2890625 415 c 1
 233.463102003 406.373933767 147.057617188 331.920339696 147.057617188 250.57421875 c 3
 147.057617188 157.424902526 219.0098014 62.341796875 324.314453125 62.341796875 c 3
 453.105375615 62.341796875 467.942382812 165.736386512 467.942382812 210.11328125 c 3
 467.942382812 300.968382551 403.697854047 382.600710396 298.077148438 403.515625 c 0
 187.436945495 425.424495832 96.0576171875 476.221331764 96.0576171875 548.581054688 c 3
 96.0576171875 617.477539062 175.924929355 674 236.713867188 674 c 1
 241.771484375 618.404296875 l 1
EndSplineSet
Substitution2: "c2pc-1" uni0223.pcap
Substitution2: "c2sc-1" uni0223.smcp
EndChar
StartChar: uni0251
Encoding: 593 593 1117
Width: 498
Flags: HW
LayerCount: 2
Fore
SplineSet
421 32 m 0
 424.682539696 18.3457368785 434.038476052 21.7252788721 435 22 c 0
 449 26 476 34 488 38 c 1
 497 11 l 1
 444 -9 381 -32 367 -32 c 3
 360 -32 349.65732448 -30.1184630346 349 -15 c 0
 348 8 348 49 348 53 c 1
 309.958333333 29.4 251.166666667 -6 182 -6 c 3
 91.7567567568 -6 23 78.0736842105 23 157 c 3
 23 294.672268908 148.407692308 411 297 411 c 3
 356.888888889 411 356.888888889 403 381 403 c 3
 404 403 412 424 419 431 c 1
 438 420 l 1
 436 414 432.1144823 397.343446901 429 388 c 0
 423 368.736842105 417.044137507 347.444029799 414 266 c 0
 413 241 413 135 413 93 c 3
 413 72.7768968193 416.139970846 50.0202040812 421 32 c 0
343 84 m 1
 345 169.736170213 348 218.195744681 348 303 c 3
 348 309 343.813776741 324.844582472 338 332 c 0
 317.473684211 358.046511628 280.368421053 367 248 367 c 3
 163.131386861 367 97 283.4 97 191 c 3
 97 117.408839779 146.558441558 43 241 43 c 3
 304 43 333 71.9411764706 343 84 c 1
EndSplineSet
EndChar
StartChar: uni0255
Encoding: 597 597 2591
Width: 446
Flags: HW
AnchorPoint: "Top" 231 465 basechar 0
AnchorPoint: "Bottom" 228 -15 basechar 0
LayerCount: 2
Fore
SplineSet
232 -11 m 3
 183 -11 34 7 34 182 c 3
 34 307.648535565 145 413 267 413 c 3
 315 413 364 393 395 370 c 1
 394 343 393 345 338 313 c 1
 300 333 248 353 214 353 c 3
 144 353 106 300.154929577 106 219 c 3
 106 113 178 40 274 40 c 3
 315.588235294 40 375 52.7689629354 375 85 c 3
 375 108.331882292 359.142857143 119 338 119 c 3
 323.198122065 119 305 100.659476035 305 76 c 3
 305 13.6179056584 362 -69 362 -69 c 1
 313 -88 l 1
 313 -88 260 9.19672131147 260 66 c 3
 260 116.129191049 302.779584146 156 348 156 c 3
 397.921875 156 419 120.319799849 419 94 c 3
 419 8.71325938342 299.7875 -11 232 -11 c 3
EndSplineSet
EndChar
StartChar: uni0256
Encoding: 598 598 2592
Width: 511
Flags: HW
AnchorPoint: "TopRight" 503.5 581 basechar 0
AnchorPoint: "Top" 390 734 basechar 0
AnchorPoint: "Bottom" 224 -15 basechar 0
LayerCount: 2
Fore
SplineSet
427 185 m 3
 427 89.5144454052 422.207254437 -15.7665296108 428.543945312 -133.506835938 c 0
 430.712113361 -173.79296875 457.955616231 -194.506835938 483.543945312 -194.506835938 c 3
 501.851562501 -194.506835938 524.767578125 -177.216796875 540.052734375 -170.12109375 c 1
 554.543945312 -200.506835938 l 1
 498.235351563 -232.134765625 463.535156251 -264.506835938 427.427734375 -264.506835938 c 3
 365.557488974 -264.506835938 350.017578125 -216.7890625 350.017578125 -154.58984375 c 3
 350.017578125 -86.8851685729 361 -22.2647505687 361 53 c 1
 316.272727273 23 259.618181818 -5 197 -5 c 3
 97 -5 34 79 34 172 c 3
 34 252 79.5630586284 321.640322119 135 359 c 0
 181 390 237 405 267 405 c 3
 292 405 349 388 363 386 c 1
 363 504 361 562.992063992 361 626 c 0
 361 642 354 656 337 656 c 3
 331 656 306 650 296 649 c 1
 288 681 l 1
 340 692 399 720 442 754 c 1
 462 738 l 1
 456 724 449.413489624 696.954544586 448 686 c 0
 428 531 427 354 427 185 c 3
228 359 m 3
 206 359 174.4998206 345.796757268 155 333 c 0
 123 312 98 278 98 226 c 3
 98 136 154 44 256 44 c 3
 297 44 333 60 358 80 c 1
 359 154 362 231 362 306 c 0
 362 337 336 340 310 346 c 0
 284 352 238 359 228 359 c 3
EndSplineSet
EndChar
StartChar: uni025A
Encoding: 602 602 2593
Width: 562
Flags: HW
LayerCount: 2
Fore
SplineSet
414.276367188 277.443359375 m 1
 414.276367188 243.9713234 412.0390625 215.783897853 412.0390625 186.250976562 c 3
 412.0390625 134.933236347 425.149524633 95.5634765625 477.346679688 95.5634765625 c 3
 501.392496717 95.5634765625 524.501168121 118.040074393 562 140 c 1
 551.130859375 162.7890625 l 1
 542.557277479 158.504247818 529.703477788 148.063476562 519.434570312 148.063476562 c 3
 496.870703125 148.063476562 475.141289294 166.614738798 470.934570312 202.063476562 c 0
 466.297944032 241.134912003 468.616295143 286.18931991 469.514322862 315.999998854 c 1
 448 327.576171875 l 1
 314.639931757 257.455829682 153.467639438 182.967579318 20 131 c 1
 20 107 l 1
 31 106 46 98 51 86 c 0
 71.3556074335 37.1465421596 132 -8 190 -8 c 3
 224 -8 367 52 367 227 c 3
 367 334 306 417 199 417 c 3
 130 417 70 382 28 349 c 1
 49 322 l 1
 77 345 116 367 163 367 c 3
 222 367 292 321 292 207 c 3
 292 130.837433832 268.704814097 39 204 39 c 3
 158.425531915 39 112.85106383 89.9625 102 135 c 1
 110 139 l 0
 414.276367188 277.443359375 l 1
EndSplineSet
EndChar
StartChar: uni0269
Encoding: 617 617 1970
Width: 241
Flags: HW
LayerCount: 2
Fore
SplineSet
174 36 m 3
 189.416992188 36 208.200195312 45.9169921875 231 53 c 1
 237 22 l 1
 204.38671875 11.806640625 156.021484375 -22 126 -22 c 3
 91.5830078125 -22 72.7353515625 6.77734375 72.7353515625 58.0830078125 c 3
 72.7353515625 84.619140625 81 169.909179688 81 199 c 3
 81 219 82.7509765625 288.497070312 76 308 c 0
 67 334 62 336 44 336 c 3
 34 336 31 335 22 335 c 1
 20 364 l 1
 57.8955078125 371 95.7900390625 375 147 416 c 1
 168 401 l 1
 150.568359375 338.24609375 149.831054688 247.377929688 149.831054688 170 c 3
 149.831054688 114.548828125 156.263671875 36 174 36 c 3
EndSplineSet
EndChar
StartChar: uni026D
Encoding: 621 621 2596
Width: 248
Flags: HW
AnchorPoint: "Top" 121 734 basechar 0
AnchorPoint: "TopRight" 242 581 basechar 0
LayerCount: 2
Fore
SplineSet
91 228 m 3
 91 514.0625 89.6269800709 599.968318866 88 626 c 0
 87 642 81 656 64 656 c 3
 58 656 32 650 22 649 c 1
 14 681 l 1
 66 692 126 720 169 754 c 1
 188 738 l 1
 182 724 176.306657702 696.967800402 175 686 c 0
 165 602.062176166 160 392.777202073 160 254 c 3
 160 137.828850863 154.568887355 14.6755174678 162.543945312 -133.506835938 c 0
 164.712113361 -173.79296875 191.955616232 -194.506835938 217.543945312 -194.506835938 c 3
 235.851562501 -194.506835938 258.767578125 -177.216796875 274.052734375 -170.12109375 c 1
 288.543945312 -200.506835938 l 1
 232.235351563 -232.134765625 197.535156251 -264.506835938 161.427734375 -264.506835938 c 3
 97.9589843747 -264.506835938 82.017578125 -216.7890625 82.017578125 -154.58984375 c 3
 82.017578125 -75.8095528204 91 -2.71357403515 91 228 c 3
EndSplineSet
EndChar
StartChar: uni026F
Encoding: 623 623 2480
Width: 750
Flags: HW
AnchorPoint: "Bottom" 378 -15 basechar 0
AnchorPoint: "Top" 376 465 basechar 0
LayerCount: 2
Fore
SplineSet
341 245 m 3
 341 266.8046875 342 289.40234375 342 312 c 0
 342 322 338 331 328 331 c 3
 316.108398438 331 291.134765625 328.428710938 284 328 c 1
 276 358 l 1
 321 370.17578125 371 392.189453125 413 413 c 1
 428 398 l 1
 413.713867188 357.650390625 408 308.3671875 408 266 c 3
 408 215.8125 412.377929688 140.450195312 415 120 c 0
 420 81 436 43 485 43 c 3
 531.799804688 43 569.825195312 67 602 87 c 1
 603.77734375 163.068359375 610 265.399414062 610 298 c 3
 610 337 580 337 543 338 c 1
 536 369 l 1
 589 379 644 392 685 403 c 1
 696 387 l 1
 683.909179688 355.3203125 677 234.360351562 677 207 c 3
 677 187 680.759765625 118.211914062 686 98 c 0
 693 71 700 70 718 70 c 3
 728 70 731 71 740 71 c 1
 742 42 l 1
 705 35 668 31 618 -10 c 1
 597 5 l 1
 602 19.197265625 605 39.7041015625 605 61 c 1
 557.857421875 30 498.928710938 -9 440 -9 c 3
 387 -9 361 25 347 58 c 1
 308 35.5771484375 251 5 176 5 c 3
 100 5 69 50 69 121 c 3
 69 158.888671875 71 202.518554688 71 245 c 3
 71 266.8046875 72 289.40234375 72 312 c 0
 72 322 68 331 58 331 c 3
 48 331 27 319 21 317 c 1
 11 348 l 1
 50.2041015625 359 101.83984375 394 142 422 c 1
 160 406 l 1
 144.286132812 354.646484375 138 294.489257812 138 238 c 3
 138 197.6328125 140.024414062 154.538085938 144 138 c 0
 156.376953125 86.513671875 172 53 236 53 c 3
 269 53 309 64.4228515625 341 80 c 1
 340 87 340 94 340 103 c 3
 340 136.809570312 341 196.314453125 341 245 c 3
EndSplineSet
EndChar
StartChar: uni0272
Encoding: 626 626 1989
Width: 526
Flags: HW
AnchorPoint: "Bottom" 269 -15 basechar 0
AnchorPoint: "Top" 272 465 basechar 0
LayerCount: 2
Fore
SplineSet
162.345703125 55 m 3
 162.345703125 -53.4386019445 158.423768932 -124.413476345 149.249023438 -172 c 0
 136.630814681 -237.446686212 111.308131815 -279.271062226 82.470703125 -323 c 1
 72.330078125 -322 73.189453125 -321 31.189453125 -321 c 3
 14.4353181635 -321 -10.6460207818 -325 -20.1083984375 -326 c 1
 -30.1669921875 -290 l 1
 20.0013471612 -275.843201216 49.0599002723 -238.660890175 65.3564453125 -187 c 0
 86.3563860243 -131.964818646 95.9582557934 -53.1177976917 98.2646484375 20 c 0
 99.0348228019 87.1082535059 97 167 97 199 c 3
 97 219 94.4716482638 287.976104104 86 308 c 0
 77 334 72 336 54 336 c 3
 44 336 41 335 32 335 c 1
 30 364 l 1
 67 371 104 375 154 416 c 1
 175 401 l 1
 170 387.056338028 167 366.915492958 167 346 c 1
 215 377 267 415 330 415 c 3
 403 415 448 375 448 304 c 3
 448 265.971428571 446 224.485714286 446 183 c 3
 446 126 446.737721518 70.967088615 449 54 c 0
 451 39 463.085896873 34.4253562504 474 32 c 0
 483 30 505 29 515 27 c 1
 510 -7 l 1
 471 2 450 4 408 4 c 3
 378 4 335 -1 309 -7 c 1
 305 26 l 1
 316 28 331.770914699 27.6973278528 343 31 c 0
 360 36 369.491767923 47.9341433822 373 76 c 0
 375 92 379 128 379 143 c 3
 379 192.5 376.161935969 266.771303188 374 287 c 0
 369 328.910447761 348 359 293 359 c 3
 245 359 203 345 170 324 c 1
 167.292573402 234.329113924 162.345703125 171.548690085 162.345703125 55 c 3
EndSplineSet
EndChar
StartChar: uni0281
Encoding: 641 641 2602
Width: 496
Flags: HW
LayerCount: 2
Fore
SplineSet
178 185.194335938 m 1
 177 143.568359375 176.141870544 88.7710263708 183 52.1943359375 c 0
 189 20.1943359375 202 18.1943359375 215 16.1943359375 c 1
 276.354166667 16.8693949382 309 45 310 81 c 1
 310 141.985885417 253 186 202 187 c 1
 192.490566038 187 187.509433962 186.097167969 178 185.194335938 c 1
60 -0.8056640625 m 1
 60 23.1943359375 l 1
 96 24.1943359375 104 31.1943359375 109 63.1943359375 c 1
 111.161132812 111.770507812 112.201171875 147.366210938 112.201171875 182.44140625 c 3
 112.201171875 228.513671875 110.40625 273.686523438 107 346.194335938 c 1
 104 371.194335938 93 376.194335938 62 378.194335938 c 1
 66 405.194335938 l 1
 89.42578125 400.689453125 113.663085938 398.620117188 137.98046875 398.620117188 c 0
 167.643554688 398.620117188 197.42578125 401.69921875 226 407.194335938 c 1
 231 378.194335938 l 1
 201 373.194335938 190.01189389 371.096623389 187 345.194335938 c 0
 182 302.194335938 180 264.194335938 178 212.194335938 c 1
 198.641329451 213.190425312 207.518728562 215 229 215 c 1
 294.011235955 342.574821921 383.421457667 425.007783778 492 415.194335938 c 1
 498 386 l 1
 378 386 299.040609137 239.6 297 203 c 1
 339.683673469 191.283538696 386 151.078288824 386 100.194335938 c 1
 386 40.1943359375 322 -7.8056640625 246 -7.8056640625 c 1
 197 -7.8056640625 178 0.1943359375 135 0.1943359375 c 1
 105 0.1943359375 87 0.1943359375 60 -0.8056640625 c 1
EndSplineSet
EndChar
StartChar: uni0302
Encoding: 770 770 93
Width: 0
Flags: HW
AnchorPoint: "TopMark" -179 768 basemark 0
AnchorPoint: "TopMark" -180 537 mark 0
AnchorPoint: "Top" -174 537 mark 0
LayerCount: 2
Fore
SplineSet
-30.2001953125 612.200195312 m 1
 -73 576 l 1
 -174.950195312 649.981445312 l 1
 -275.900390625 576 l 1
 -318.700195312 612.200195312 l 1
 -199.900390625 731.80078125 l 1
 -150 731.80078125 l 1
 -30.2001953125 612.200195312 l 1
EndSplineSet
EndChar
StartChar: Lambda
Encoding: 923 923 986
Width: 733
Flags: HW
AnchorPoint: "Bottom" 368 -15 basechar 0
AnchorPoint: "Top" 382 679 basechar 0
LayerCount: 2
Back
SplineSet
364 507 m 1
 312.501629389 371.110893755 238.604917999 226.191311398 182 96 c 0
 172 73 193 70 227 64 c 1
 222 -8 l 1
 192 -1 156 1 120 1 c 3
 94 1 68 0 46 -3 c 1
 45 14 44 37 43 61 c 1
 82 71 86.7672077901 76.1124447675 97 97 c 0
 194 295 269.643877136 453.137093764 326 599 c 0
 343 643 341 650 349 689 c 1
 415 689 l 1
 421 653 423 645 438 600 c 0
 509 387 561.675212583 292.146370115 651 80 c 0
 659 61 667 63 693 59 c 1
 694 42 696 17 697 -2 c 1
 665 -1 635 1 607 1 c 3
 574 1 543 -1 510 -10 c 1
 510 -10 493 53 493 54 c 1
 511 60 542.655651182 59.3471545497 532 83 c 0
 470.786730957 218.877945655 420.586516256 358.743971691 364 507 c 1
EndSplineSet
Fore
SplineSet
362 503 m 1
 311.06754555 368.43341547 238.042850925 224.898557127 182 96 c 0
 172 73 193 70 227 64 c 1
 222 -8 l 1
 192 -1 156 1 120 1 c 3
 94 1 68 0 46 -3 c 1
 45 14 44 37 43 61 c 1
 82 71 86.7672077901 76.1124447675 97 97 c 0
 194 295 269.643877136 453.137093764 326 599 c 0
 343 643 341 650 349 689 c 1
 415 689 l 1
 421 653 423 645 438 600 c 0
 509 387 561.675212583 292.146370115 651 80 c 0
 659 61 667 63 693 59 c 1
 694 42 696 17 697 -2 c 1
 665 -1 635 1 607 1 c 3
 574 1 543 -1 510 -10 c 1
 510 -10 493 53 493 54 c 1
 509.615384615 60 539.255826133 59.5434209534 529 83 c 0
 470.151095654 217.596078244 418.249691755 356.142613468 362 503 c 1
EndSplineSet
Position2: "cpsp-1" dx=0 dy=0 dh=50 dv=100
Substitution2: "c2pc-1" lambda.pcap
Substitution2: "c2sc-1" lambda.smcp
EndChar
StartChar: Sigma
Encoding: 931 931 993
Width: 626
Flags: HW
AnchorPoint: "Top" 310 699 basechar 0
AnchorPoint: "Bottom" 307 -15 basechar 0
LayerCount: 2
Back
SplineSet
18 548 m 1
 48 615 49 708 105 719 c 1
 122 700 144 680 146 680 c 0
 180.209416188 679.287344186 359.180360402 676.03515625 493.947265625 676.03515625 c 3
 556.234189517 676.03515625 599.343509288 678 635 678 c 1
 661 639 l 1
 662 639 656 633 655 633 c 0
 649 632 206 69 198 67 c 1
 294 67 404.968757626 70 469 70 c 3
 574.0428484 70 587 92 615 178 c 1
 677 150 l 1
 639 61 625 15 594 -30 c 1
 562 -11 561.022460938 2 473 2 c 3
 356.982421875 2 105 3 42 0 c 1
 22 53 l 1
 64 74 95 105 126 138 c 1
 248 284 376 456 497 606 c 1
 500 610 l 1
 478 606 150 606 139 605 c 1
 117 611 109 599 79 528 c 1
 18 548 l 1
EndSplineSet
Fore
SplineSet
40 1 m 1
 21 53 l 1
 54.7731958763 68.0340909091 84.8550803365 92.0623947771 105 116 c 0
 168.08984375 190.967773438 231.771484375 266.940429688 295.001953125 343.299804688 c 1
 232.919921875 421.344726562 147.8984375 515.115234375 88.9716796875 588.299804688 c 0
 63.5045726168 619.928887251 49.5 628.299804688 23 635 c 1
 34 690 l 1
 106.521484375 686.35546875 186.588460485 684.969176485 267.955928091 684.969176485 c 0
 416.808729307 684.969176485 550.666326891 689.186564497 568 693 c 1
 585.773556617 676.722710419 592.133789062 667.531857017 592.133789062 653.086914062 c 0
 592.133789062 636.768682218 572.221954362 609.343978007 562 522 c 1
 505 519 l 1
 491.035714286 554.234042553 511.214285714 603.545454545 459 611 c 1
 415.24715259 617.611961002 345.867634005 621.077148438 279.205078125 621.077148438 c 0
 256.383152767 621.077148438 222.982421875 619.799804688 202.997070312 617.193359375 c 1
 253.44921875 553.228515625 311.406838201 488.633657253 365.102539062 425.299804688 c 0
 377.669108989 410.477588491 408.323242188 389.299804688 424.703125 381.299804688 c 1
 424.703125 315.299804688 l 1
 408.173828125 307.461914062 380.354710844 292.522591925 371.6640625 281.299804688 c 0
 313.045632071 205.602095287 255.914544087 137.912666023 198 66 c 1
 260.350012183 67 323.544931462 67 386 67 c 0
 408.404296875 67 449.24081751 70.7916686561 470 82 c 0
 518.547121434 108.211640227 531.333333333 117.050420168 566 179 c 1
 621 163 l 1
 598.846153846 99.7176470588 583.615384615 59.4470588235 567 0 c 1
 418.446420524 -0.773710049693 287.995461185 2.4830933189 163.612260931 2.4830933189 c 0
 126.27277498 2.4830933189 86.1863772874 2.08995072445 40 1 c 1
EndSplineSet
Position2: "cpsp-1" dx=0 dy=0 dh=50 dv=100
Substitution2: "c2pc-1" sigma.pcap
Substitution2: "c2sc-1" sigma.smcp
EndChar
StartChar: Upsilon
Encoding: 933 933 995
Width: 734
Flags: HW
AnchorPoint: "Top" 367 699 basechar 0
AnchorPoint: "Bottom" 363 -15 basechar 0
LayerCount: 2
Back
SplineSet
274 611 m 1xb0
 255 612 252 604 241 604 c 0
 239 604 232 593 233 592 c 1
 292 481 370 385 396 348 c 1
 435 414 542 599 542 594 c 1
 546 599 549 606 537 607 c 0
 527 608 510 608 499 613 c 1
 504 688 l 1
 525 683 566 677 608 677 c 3
 637 677 667 682 688 689 c 1
 698 610 l 1
 659 610 643 603 633 590 c 1
 564 515 491 393 444 291 c 1
 443 249 440 205 450 88 c 0
 452 72 497 69 550 66 c 1
 541 -6 l 1
 488 0 438 0 389 0 c 3
 344 0 298 0 250 -11 c 1
 232 63 l 1
 302 72 340 79 338 94 c 1
 338 97 335 261 336 264 c 1
 313 297 221 456 106 591 c 1
 102 600 76 603 44 617 c 1
 50 687 l 1
 82 683 131 678 175 678 c 3xd0
 210 678 243 680 265 686 c 1
 274 611 l 1xb0
EndSplineSet
Fore
SplineSet
425 324 m 0
 419.54906044 290.205325962 417.399414062 252.581282281 417.399414062 214.342773438 c 0
 417.399414062 178.133325844 420.916734959 140.715006353 422 112 c 0
 423.420813047 74.3373282166 432.29245283 72.8333333333 525 66 c 1
 516 -8 l 1
 463.800509338 -2.75 415.401952462 1 366.75 1 c 0
 319.395378151 1 271.794117647 -2.33333333333 220 -11 c 1
 208 63 l 1
 312 75.8985507246 313.706970265 79.6099897174 315 110 c 0
 315.789825208 128.563220582 317.227340618 168.345289777 316.376953125 212 c 0
 315.482887614 257.896924742 311.355798638 308.259179162 308 325 c 0
 288.211538462 423.717213115 228.846153846 584 112 584 c 3
 93.5846153846 584 75.1692307692 578.666666667 55 568 c 1
 24 621 l 1
 42 647 95 692 136 692 c 3
 311 692 335 477.106382979 368 342 c 1
 400 477.106382979 424 692 599 692 c 3
 640 692 692 647 710 621 c 1
 679 568 l 1
 658.830769231 578.666666667 640.415384615 584 622 584 c 3
 504.557692308 584 441.211182142 424.505905498 425 324 c 0
EndSplineSet
Position2: "cpsp-1" dx=0 dy=0 dh=50 dv=100
Substitution2: "c2pc-1" upsilon.pcap
Substitution2: "c2sc-1" upsilon.smcp
EndChar
StartChar: uni03CF
Encoding: 975 975 1028
Width: 687
UnlinkRmOvrlpSave: 1
Flags: HW
LayerCount: 2
Fore
SplineSet
391 685 m 1
 455 679.555664062 536 681.111328125 604 692 c 1
 613 656 l 1
 572 646 546.305696 634.653348129 518 610 c 0
 425 529 331 449 239 367 c 1
 576 87 l 0
 610 59 649 38 677 23 c 1
 673 -1 l 1
 644.516060603 -12.3768356496 617.595864481 -23 585 -23 c 1
 585 -23 508.870435285 43.8708654623 491 58 c 0
 465.95836944 77.7989898732 280 232 178 316 c 1
 178 235 180.437873927 134.085710579 183 79 c 0
 185 36 217 34 276 20 c 1
 272 -10 l 1
 195 2 115 7 15 -5 c 1
 12 28 l 1
 67 29 88.8448476065 35.0089550282 91 71 c 0
 101 238 101.21927907 417.969825563 95 589 c 0
 93 644 78 645 15 657 c 1
 21 688 l 1
 101 678 190 681 269 689 c 1
 272 657 l 1
 214 652 189.572216385 651.213235274 187 608 c 0
 182 524 178 444 178 357 c 1
 260 433 343.498427689 504.498427689 423 584 c 0
 434 595 446.260324889 603.015204179 447 621 c 0
 448 645.314453125 427 651.657226562 390 658 c 1
 391 685 l 1
595 -8 m 1
 673 -2 l 1
 666.072164948 -21.3037179411 484.924528302 -165.619433198 449 -244 c 1
 313 -242 l 1
 313 -234.869427079 313 -227.688416717 313 -220.461914062 c 1
 414.679264183 -146.867175798 531.177581539 -58.1421107533 595 -8 c 1
EndSplineSet
Position2: "cpsp-1" dx=0 dy=0 dh=50 dv=100
EndChar
StartChar: uni03D9
Encoding: 985 985 1036
Width: 612
UnlinkRmOvrlpSave: 1
Flags: HW
LayerCount: 2
Fore
SplineSet
335 45 m 1
 334.097175434 -15.4489252934 332.334024359 -85.4544133541 331 -135.099609375 c 1
 331 -135.099609375 235.455927862 -147.099609375 220 -147.099609375 c 1
 220 -128.37879723 231.48732721 -18.5599933868 236.703125 47 c 1
 335 45 l 1
EndSplineSet
Refer: 1017 959 N 1 0 0 0.924852 -4.375e-07 38.6412 2
EndChar
StartChar: afii10053
Encoding: 1028 1028 1098
Width: 732
UnlinkRmOvrlpSave: 1
Flags: HW
AnchorPoint: "Top" 433 699 basechar 0
AnchorPoint: "Bottom" 423 -15 basechar 0
LayerCount: 2
Fore
SplineSet
126 368 m 1
 209.361328125 370 417.763671875 370 436 371 c 0
 473 376 478 402 494 446 c 1
 528 439 l 1
 511 375 515 312 526 248 c 1
 490 239 l 1
 470 310 477 323 436 327 c 0
 378.689453125 332 247.133789062 331 126 332 c 1
 126 368 l 1
EndSplineSet
Refer: 28 67 N 1 0 0 1 0 0 2
Position2: "cpsp-1" dx=0 dy=0 dh=50 dv=100
EndChar
StartChar: afii10059
Encoding: 1034 1034 1273
Width: 1035
UnlinkRmOvrlpSave: 1
Flags: HMW
AnchorPoint: "Top" 427 699 basechar 0
AnchorPoint: "Bottom" 419 -15 basechar 0
LayerCount: 2
Fore
SplineSet
745 337 m 0
 628 337 l 1
 629 243.648221344 629.405273438 152.213674191 631 96 c 0
 632 59 636.606445312 44.9228515625 663 41 c 0
 676.45703125 39 737.012695312 34 772 34 c 3
 851.505859375 34 912 83 912 178 c 3
 912 256.105263158 863.810546875 337 745 337 c 0
636 616 m 0
 630.870117188 521.717044106 630 374 630 374 c 1
 701.017578125 374 763.251953125 374.70703125 822 366.883789062 c 0
 937.134765625 351.953364238 1002 271.49929605 1002 181 c 3
 1002 70 908.59765625 -4 763 -4 c 3
 700.724609375 -4 641.974609375 2 575 2 c 3
 516 2 471 -2 464 -2 c 1
 461 34 l 1
 508 36 545 35.9462890625 545 73 c 0
 545 78 548 176 548 292 c 3
 548 462.579101562 547.145507812 531.05859375 544 616 c 0
 543 643 529 643 456 657 c 1
 461 688 l 1
 534.293945312 681.428710938 622 681.571289062 734 692 c 1
 736 649 l 1
 678 647 638 652 636 616 c 0
602 334 m 9
 185 334 l 1
 184 242.641414482 181 136.056565793 186 65 c 0
 188 29 240 33 272 26 c 9
 272 26 268 3 267 -11 c 1
 171 5 98 8 19 -9 c 9
 19 -9 14 15 12 33 c 1
 48 39 88 39 89 65 c 0
 101 252.333007812 106 585.805664062 94 627 c 0
 87 649 55 649 17 654 c 9
 20 692 l 1
 106 681 175 678 277 688 c 1
 279 651 l 1
 252 647 200 647 198 632 c 0
 192 597.033452773 188 474.175994185 186 374 c 9
 602 374 l 1
 602 334 l 9
EndSplineSet
Position2: "cpsp-1" dx=0 dy=0 dh=50 dv=100
EndChar
StartChar: afii10037
Encoding: 1059 1059 1263
Width: 735
UnlinkRmOvrlpSave: 1
Flags: HW
AnchorPoint: "Top" 387 699 basechar 0
AnchorPoint: "Bottom" 339 -15 basechar 0
LayerCount: 2
Fore
SplineSet
200 -9 m 3
 178.467025162 -9 144.822037338 4 128 30 c 1
 129.224609375 61.640625 128 61.640625 188 105 c 1
 206.055764223 96.8568863407 216.865559896 86 238 86 c 3
 317.810089278 86 336.07010687 162.712395137 402 293 c 0
 451.561643836 395 533.018821522 584.00807699 536 589 c 0
 548.15436427 608.906567489 553.713947589 632.285855171 528 643 c 0
 516 648 497 650 481 652 c 1
 483 691 l 1
 521 685 664 676 729 690 c 1
 729 647 l 1
 664 645 638.135663177 627.868544705 611 600 c 1
 555.439804079 527.66944795 491.49440454 399.236368455 434.656331148 277.00000544 c 0
 370.044573839 138.045502759 337.939048991 -9 200 -9 c 3
350 184 m 1
 320.83323567 246.908131971 218 467 114 608 c 0
 90.9110152865 639.303335044 65 636 6 652 c 1
 10 692 l 1
 67 686 211 679 269 690 c 1
 274 651 l 1
 274 651 252 649 237 649 c 0
 219 649 206.582576937 640.41594388 215 622 c 0
 301.431389027 432.902268082 387.037557621 291.083762581 411.591796875 252 c 1
 350 184 l 1
EndSplineSet
Position2: "cpsp-1" dx=0 dy=0 dh=50 dv=100
EndChar
StartChar: afii10044
Encoding: 1066 1066 1261
Width: 728
Flags: HW
LayerCount: 2
Fore
SplineSet
456 349 m 0
 339 349 l 1
 340 251 340.405273438 155.012695312 342 96 c 0
 343 59 347.606445312 44.9228515625 374 41 c 0
 387.45703125 39 448.012695312 34 483 34 c 3
 562.505859375 34 623 83 623 178 c 3
 623 262 574.810546875 349 456 349 c 0
277.505859375 683.529296875 m 3
 320.064453125 683.529296875 367.725585938 686.141601562 422 692 c 1
 424 649 l 1
 379.33984375 647 348.999023438 651.977539062 347 616 c 0
 341.870117188 523.665039062 341 379 341 379 c 1
 412.017578125 379 474.251953125 379.70703125 533 371.883789062 c 0
 648.134765625 356.551757812 713 273.93359375 713 181 c 3
 713 70 619.59765625 -4 474 -4 c 3
 411.724609375 -4 352.974609375 2 286 2 c 3
 227 2 182 -2 175 -2 c 1
 172 34 l 1
 219 36 256 35.9462890625 256 73 c 0
 256 78 259 176 259 292 c 3
 259 462.579101562 258.000976562 530.958984375 255 616 c 0
 254.435546875 633.98046875 239 643 228 643 c 3
 193.272460938 643 160.211914062 641.639648438 126 637 c 0
 80.3701171875 630.8125 77.1494140625 637 41 565 c 1
 2 584 l 1
 21.3330078125 619.935546875 49.3662109375 692.728515625 60 713 c 1
 83 695 105.003690602 685.378037341 127 685 c 0
 185.185546875 684 253.010742188 683.529296875 277.505859375 683.529296875 c 3
EndSplineSet
Position2: "cpsp-1" dx=0 dy=0 dh=50 dv=100
EndChar
StartChar: afii10048
Encoding: 1070 1070 1256
Width: 1030
UnlinkRmOvrlpSave: 1
Flags: HW
LayerCount: 2
Fore
SplineSet
626.69140625 660 m 3
 508.877632637 660 413.624023438 543 413.624023438 381 c 3
 413.624023438 201 533.940737711 35 676.973632812 35 c 3
 804.757112401 35 887.440429688 169 887.440429688 320 c 3
 887.440429688 500 769.683203535 660 626.69140625 660 c 3
658.768554688 709 m 3
 838.22265625 709 983 543 983 340 c 3
 983 144 846.025390625 -15 660.501953125 -15 c 3
 474.978515625 -15 325 143 325 340 c 3
 325 537 476.712890625 709 658.768554688 709 c 3
EndSplineSet
Refer: 34 73 N 0.921136 0 0 1 2.83912 0 2
Refer: 1962 58114 N 0.16 0 0 0.913043 188 341 2
Position2: "cpsp-1" dx=0 dy=0 dh=50 dv=100
EndChar
StartChar: afii57793
Encoding: 1460 1460 2535
Width: 0
Flags: HW
AnchorPoint: "HbBottom" 286 0 mark 0
LayerCount: 2
Fore
SplineSet
265.444335938 -19.9775390625 m 1
 287.502929688 -22.4853515625 308.888671875 -31.392578125 329.892578125 -43.9462890625 c 1
 326.084377935 -65.9459677861 318.010275569 -79.679220687 307 -94 c 1
 283.341893458 -90.6958025763 260.616176564 -81.3651893702 243.017578125 -69.7021484375 c 1
 245.597471591 -50.7499446295 249.398111305 -34.1651288491 265.444335938 -19.9775390625 c 1
EndSplineSet
EndChar
StartChar: afii57645
Encoding: 1470 1470 2545
Width: 510
Flags: HW
LayerCount: 2
Fore
SplineSet
99.3994140625 439.90625 m 1
 63.51953125 462.759765625 l 1
 93 605 l 1
 128.899414062 589.919921875 l 1
 215.183703849 585.600585938 400.171224859 589.849609375 439.040039062 584.280273438 c 1
 466.893554688 556.599609375 l 1
 442.19921875 434.918945312 l 1
 353.827183675 437.047851562 185.759712042 435.509765625 99.3994140625 439.90625 c 1
EndSplineSet
EndChar
StartChar: afii57672
Encoding: 1496 1496 2400
Width: 586
UnlinkRmOvrlpSave: 1
Flags: HW
AnchorPoint: "HbTopLeft" 67.4385 638.023 basechar 0
AnchorPoint: "HbBottom" 246.34 0 basechar 0
AnchorPoint: "HbMiddle" 276.85 292.52 basechar 0
AnchorPoint: "HbTop" 265.55 638.023 basechar 0
LayerCount: 2
Fore
SplineSet
123.21484375 592.62109375 m 1
 152.21484375 583.0625 214.390569403 552.564585144 228.53125 529.295898438 c 0
 235.326309019 518.114534262 195.060562371 412.964779594 190 407 c 0
 185.123315243 401.251953124 175.688907272 405.729492188 169.247070312 405.729492188 c 3
 136.028541129 405.729492188 114.208007812 368.832576644 114.208007812 355.750976562 c 3
 114.208007812 252.920042804 144.684909359 147.888603516 146.288085938 70.4931640625 c 1
 114.861686451 51.080078125 88.980972458 35.25390625 60.296875 16.7275390625 c 1
 59.5977566742 106.397375323 50.4404296875 223.626169512 50.4404296875 301.079101562 c 3
 50.4404296875 340.58984375 52.5870243796 372.294288373 55.986328125 383.232421875 c 0
 59.8610548909 395.70035114 79.2439559382 418.558838621 114.129882812 493.370117188 c 1
 157.0703125 456.290039062 l 1
 106 435 l 1
 37.9404358779 445.800784606 6.2890625 472.221209811 6.2890625 490.166015625 c 3
 6.2890625 509.06843132 37.9799913921 579.584822416 51.12109375 628.46484375 c 1
 106 617 l 1
 123.21484375 592.62109375 l 1
318.1171875 143.146484375 m 0
 361.26904039 144.47676105 396.885276964 184.720559623 416.810546875 208.076171875 c 0
 436.693369497 231.382029095 463.967773438 283.284244946 463.967773438 322.001953125 c 3
 463.967773438 405.214440468 418.755148014 448.009765625 394.370117188 448.009765625 c 3
 369.362647462 448.009765625 349.099464958 410.774171169 314.895507812 348.004882812 c 1
 264.012695312 372.77734375 l 1
 337.3671875 579.607421875 390.0703125 591.42578125 437.083984375 591.42578125 c 3
 462.646484375 591.42578125 541.90234375 545.418945312 541.90234375 413.401367188 c 3
 541.90234375 264.579101562 453.297399379 125.291528759 372.131835938 53.7666015625 c 0
 338.743164062 24.34375 302.55078125 1.1953125 269.934570312 1.1953125 c 0
 132.174804688 0 l 1
 103.715820312 -13.142578125 l 1
 48.1884765625 10.8046875 l 1
 61.4267578125 111.752929688 l 1
 105.430664062 149.512695312 153.427995012 138.069478944 318.1171875 143.146484375 c 0
EndSplineSet
EndChar
StartChar: afii57677
Encoding: 1501 1501 2405
Width: 597
UnlinkRmOvrlpSave: 1
Flags: HW
AnchorPoint: "HbBottomLeft" 83.6201 0 basechar 0
AnchorPoint: "HbBottomRight" 488.16 0 basechar 0
AnchorPoint: "HbTop" 294.93 638.023 basechar 0
AnchorPoint: "HbTopLeft" 104.729 638.023 basechar 0
AnchorPoint: "HbBottom" 307.36 0 basechar 0
AnchorPoint: "HbMiddle" 297.19 292.52 basechar 0
AnchorPoint: "HbTopRight" 492.68 638.023 basechar 0
LayerCount: 2
Fore
SplineSet
474.690429688 0 m 1
 115.296875 -1.1953125 l 1
 120.04296875 142.337890625 l 1
 497.516601562 142.337890625 l 1
 474.690429688 0 l 1
135.803710938 441.681640625 m 1
 132.793945312 430.090820312 126.206054688 410.13671875 126.446289062 399.7421875 c 1
 130.377929688 301.668027623 143.486328125 192.815918387 151.3515625 109.831054688 c 1
 115.296875 -1.1953125 l 1
 61.607421875 17.6337890625 l 1
 60.296875 526.90625 l 1
 121.135742188 611.366210938 l 1
 163.131835938 583.877929688 176.90234375 587.635742188 241.430664062 587.635742188 c 3
 337.110351562 587.635742188 461.563476562 579.165039062 492.272460938 574.69921875 c 1
 506.692382812 523.079263622 522.147425545 469.140827542 526.353515625 418.405273438 c 0
 532.907226562 339.35177017 535.529296875 263.503412336 535.529296875 198.3359375 c 0
 535.529296875 167.158114863 534.21875 138.730284563 532.907226562 115.8046875 c 1
 513.088867188 76.1876877003 490.79296875 35.0462865251 474.690429688 0 c 1
 427.723632812 7.1279296875 l 1
 451.195445238 166.309293445 474.668593719 317.11283655 464.888671875 427.22265625 c 1
 354.098060381 435.5859375 234.181193629 437.975585938 173.634765625 437.975585938 c 3
 162.607421875 437.975585938 149.147460938 440.005859375 135.803710938 441.681640625 c 1
EndSplineSet
EndChar
StartChar: afii57688
Encoding: 1512 1512 2416
Width: 558
UnlinkRmOvrlpSave: 1
Flags: HW
AnchorPoint: "HbTopLeft" 70.8281 638.023 basechar 0
AnchorPoint: "HbBottom" 283.63 0 basechar 0
AnchorPoint: "HbMiddle" 259.9 292.52 basechar 0
AnchorPoint: "HbTop" 251.99 638.023 basechar 0
LayerCount: 2
Fore
SplineSet
150.502929688 584.2578125 m 1
 302.961936913 583.0625 367.916820223 577.661656811 402.958007812 560.361328125 c 0
 434.41796875 544.829101562 519.244704262 430.016845815 506.51171875 193.557617188 c 0
 504.658203125 159.136712952 505.200195312 126.627276686 502.578125 100.051757812 c 1
 488.812924696 61.3422427848 473.326498564 21.2991464545 462.141601562 -12.0712890625 c 1
 407.146484375 -0.779296875 l 1
 419.990218832 83.8312073491 436.791992188 162.653046747 436.791992188 230.750976562 c 3
 436.791992188 314.855025152 426.501747565 375.973920016 356.329101562 411.900390625 c 0
 328.217091874 426.29296875 254.562688777 433.40625 147.532226562 433.40625 c 3
 108.047851562 433.40625 47.7382812501 441.697265625 27.52734375 473.823242188 c 1
 65.5400390625 620.1015625 l 1
 121.879882812 614.126953125 l 1
 150.502929688 584.2578125 l 1
EndSplineSet
EndChar
StartChar: uni1EFA
Encoding: 7930 7930 739
Width: 863
Flags: HW
LayerCount: 2
Fore
SplineSet
304 2 m 0
 89 2 54 -7 43 -7 c 1
 38 37 l 1
 97 43 111 45 112 76 c 0
 112 80 114 178 114 300 c 0
 114 453 109 600 108 611 c 0
 106 639 94 644 32 646 c 1
 36 692 l 1
 48.2523712358 688.12266733 92.6889059073 685.448031351 149.999997009 683.886557563 c 0
 236.18059835 681.53851729 360.21346939 681.622689997 441.999997442 684.471792441 c 0
 474.01527887 685.587071678 498.728604065 687.104418514 511 689 c 1
 515 648 l 1
 428 637 414 656 410 572 c 0
 408 525 407 149 407 149 c 2
 407 90 409 52 450 52 c 0
 482 52 640 52 663 53 c 0
 733 57 762 91 787 166 c 1
 822 159 l 1
 822 102 810 122 783 -21 c 1
 761 -12 755 -3 711 -1 c 1
 626.878 -1 409.423 2 304 2 c 0
262.83 645.037 m 3
 216.041 645.037 208.13 645.561 205 572 c 0
 203 525 202 149 202 149 c 2
 202 90 204 52 245 52 c 0
 252.015 52 278.264 52.3379 296.004 52.3379 c 0
 310.485 52.3379 317 59.6827 317 76 c 0
 317 80 319 178 319 300 c 0
 319 453 314 600 313 611 c 0
 311.395 635.398 302.888 645.037 262.83 645.037 c 3
EndSplineSet
Position2: "cpsp-1" dx=0 dy=0 dh=50 dv=100
EndChar
StartChar: quotereversed
Encoding: 8219 8219 462
Width: 200
Flags: HW
LayerCount: 2
Fore
SplineSet
145.506835938 449.063476562 m 1
 65.853515625 498.086914062 20.1298828125 601.26171875 20.1298828125 649.633789062 c 3
 20.1298828125 656.899414062 24.6220703125 664.111328125 35.076171875 668.30078125 c 0
 55.7724609375 676.594726562 71.427734375 695.501953125 92.4599609375 722.00390625 c 0
 96.4052734375 726.975585938 101.922851562 732.649414062 109.01953125 732.649414062 c 3
 116.116210938 732.649414062 123.596679688 727.575195312 126.67578125 722.00390625 c 0
 143.883789062 690.868164062 152.416015625 677.728515625 184.107421875 656.236328125 c 0
 189.37109375 652.666992188 194.580078125 647.956054688 194.580078125 640.859375 c 3
 194.580078125 633.763671875 190.021484375 625.483398438 184.107421875 623.118164062 c 0
 159.8046875 613.395507812 141.12109375 594.939453125 130.193359375 571.828125 c 0
 122.709960938 556 153.208984375 520.090820312 180.709960938 502 c 1
 145.506835938 449.063476562 l 1
EndSplineSet
Position2: "Extra space for context kern-1" dx=35 dy=0 dh=70 dv=0
Position2: "cpsp-1" dx=0 dy=0 dh=7 dv=14
EndChar
StartChar: peseta
Encoding: 8359 8359 1288
Width: 679
UnlinkRmOvrlpSave: 1
Flags: HW
LayerCount: 2
Fore
SplineSet
447 103 m 1
 462.765625 53.978515625 494.297851562 31 532 31 c 0
 559 31 586 44.47265625 586 70 c 0
 586 100.489257812 547.443359375 113.979492188 523 126 c 0
 486.25 144.071289062 433 159.678710938 433 218 c 0
 433 260.5 484.458007812 303 547 303 c 0
 568.765625 303 588.552734375 297 609 291 c 1
 609 291 616.384765625 249.451171875 621 222 c 1
 606 217 l 1
 592 241 561.899414062 271 529 271 c 0
 505.533203125 271 485 255.9453125 485 235 c 0
 485 218.333007812 501.19140625 204.110351562 550 185 c 0
 607.630859375 162.434570312 639 124.85546875 639 85 c 0
 639 19.9228515625 566.157226562 -9 520 -9 c 3
 477.943359375 -9 427 22.1064453125 427 54 c 3
 427 62.5419921875 426.428710938 87.4580078125 425 96 c 1
 447 103 l 1
192 276 m 1
 240.28515625 301.833007812 280.213867188 328.52734375 309 369 c 1
 324 366 l 1
 320 343.762695312 320 324.947265625 318 301 c 1
 349.131835938 303 385.8671875 302 417 304 c 1
 413 261 l 1
 381.987304688 261 346.012695312 263 315 264 c 1
 311 225.21875 310 183.310546875 310 107 c 3
 310 73 319.756835938 38 356 38 c 3
 384.411120605 38 416.096203613 62 425 96 c 1
 425 96 434.818359375 79.0439453125 443 66 c 1
 427.095296224 32.0712890625 376.53898112 -10 322 -10 c 3
 305.477539062 -10 246 0 246 97 c 3
 246 160.845703125 250 200.430664062 252 263 c 1
 252 263 217 260 195 260 c 1
 192 276 l 1
195.286132812 406 m 3
 260.833007812 406 323.31640625 445.708007812 323.31640625 530 c 3
 323.31640625 577.948242188 285.415039062 616.924804688 260.872070312 633 c 0
 236.443359375 649 201.159179688 655 156.375 655 c 3
 143.95703125 655 134.313476562 641.990234375 134.849609375 627 c 0
 136.505859375 580.694335938 135.677734375 499.34765625 136.505859375 418 c 1
 154.71875 409 172.93359375 406 195.286132812 406 c 3
13.4833984375 687 m 1
 29.755859375 685 51.0361328125 683 75.4462890625 683 c 3
 125.98828125 683 153.750976562 694 204.294921875 694 c 3
 322.497070312 694 397 612.907226562 397 538 c 3
 397 448.702148438 327.553710938 370 188.663085938 370 c 3
 168.85546875 370 154.213867188 374 136.989257812 378 c 1
 139.215820312 256.07421875 140.44140625 122.020507812 144.784179688 67 c 0
 148.01953125 26 158.803710938 35 197.090820312 30 c 1
 193.779296875 -10 l 1
 193.779296875 -10 142.977539062 1 110 1 c 3
 76 1 21.869140625 -10 21.869140625 -10 c 1
 10.279296875 21 l 1
 57.5654296875 45.62109375 66.8037109375 35.9560546875 67.7900390625 72 c 0
 71.0830078125 154.912109375 72.73046875 250.248046875 72.73046875 351.40625 c 0
 72.73046875 438.083984375 70.5888671875 535.737304688 66.3388671875 617 c 0
 65.1845703125 639.9765625 53.5673828125 650 11 651 c 1
 13.4833984375 687 l 1
EndSplineSet
EndChar
StartChar: logicaland
Encoding: 8743 8743 1315
Width: 522
Flags: HW
LayerCount: 2
Fore
SplineSet
1 4 m 1
 249.424804688 700 l 1
 273.103515625 700 l 1
 521 4 l 1
 472 -8 l 1
 261.559570312 591.079101562 l 0
 50 -8 l 1
 1 4 l 1
EndSplineSet
EndChar
StartChar: greaterequal
Encoding: 8805 8805 1313
Width: 533
Flags: HW
LayerCount: 2
Fore
SplineSet
72 464.314453125 m 1
 94.5 541 l 1
 463.5 428.142578125 l 1
 465.5 355.232421875 l 1
 88.5 241 l 1
 72.5 297.512695312 l 1
 353 380.109375 l 1
 72 464.314453125 l 1
EndSplineSet
Refer: 330 8722 N 1 0 0 1 0 -124 2
Position2: "'case' vertical ajustments for all-caps-1" dx=0 dy=90 dh=0 dv=0
EndChar
StartChar: heart
Encoding: 9829 9829 1494
Width: 674
Flags: HW
LayerCount: 2
Fore
SplineSet
36.44921875 498.337890625 m 0
 36.44921875 584.0859375 94.44921875 657.125976562 176.466796875 657.125976562 c 0
 251.11328125 657.125976562 315.935546875 595.841796875 337.200195312 516.120117188 c 1
 359.133789062 600.44140625 428.15625 657.125976562 498.14453125 657.125976562 c 0
 580.454101562 657.125976562 638.162109375 583.744140625 638.162109375 498.337890625 c 0
 638.162109375 345.458007812 489.342505645 244.5390621 408.87890625 112.727539062 c 0
 378.632337148 63.1790926842 370.373941867 23.5683310531 363.203125 6.9384765625 c 1
 360.388364954 2.78117149476 353.454413111 1.38962188598 338.453125 -0.990234375 c 0
 337.995117188 -1.0927734375 337.528320312 -1.1435546875 337.051757812 -1.1435546875 c 0
 335.759765625 -1.1435546875 334.569587282 -0.196266515437 332.912109375 0.0068359375 c 0
 321.922129697 1.353515625 313.596156024 2.26922477247 312.010742188 5.7109375 c 0
 305.711937486 19.3847656251 300.014633438 55.2519251393 265.733398438 112.727539062 c 0
 185.356158793 247.487304688 36.44921875 344.40625 36.44921875 498.337890625 c 0
EndSplineSet
EndChar
StartChar: diamond
Encoding: 9830 9830 1495
Width: 619
Flags: HW
LayerCount: 2
Fore
SplineSet
303.391601562 678.125 m 0
 314.007731798 678.125 315.544921875 675.673828125 319.146484375 671 c 0
 343.014648438 640.024414062 405.617627052 511.441453945 564.49609375 352.197265625 c 0
 566.719726562 349.96875 569.115234375 347.401367188 569.115234375 343.270507812 c 0
 569.115234375 341.772697346 567.744140625 339.366210938 565.145507812 336 c 0
 542.561523438 306.752929688 435.2421875 205.041015625 320.416992188 -2.9228515625 c 0
 318.322265625 -6.7138671875 316.982421875 -10.6796875 303.08203125 -10.6796875 c 0
 290.265625 -10.6796875 289.158203125 -8.61328125 286.016601562 -2.9228515625 c 0
 156.142578125 232.295898438 37.400390625 327.814453125 37.400390625 342.240234375 c 0
 37.400390625 358.642578125 146.798828125 446.1640625 286.016601562 670.517578125 c 0
 288.497070312 674.514648438 290.004882812 678.125 303.391601562 678.125 c 0
EndSplineSet
EndChar
StartChar: uni266D
Encoding: 9837 9837 1435
Width: 309
UnlinkRmOvrlpSave: 1
Flags: HW
LayerCount: 2
Fore
SplineSet
165 380 m 3
 231.756807216 380 282 329.333787271 282 228 c 3
 282 95.7647422217 164.731277533 19 40 -11 c 1
 40 68 l 1
 137.277777778 89 193 158.921107229 193 216 c 3
 193 270.083269132 178.024243364 301 150 301 c 3
 118.605885417 301 76 248 76 248 c 1
 65 316 l 1
 65 316 123.333007812 380 165 380 c 3
EndSplineSet
Refer: 1961 58113 N 0 -0.719 0.9375 0 69 740 2
EndChar
StartChar: uni26B2
Encoding: 9906 9906 1525
Width: 560
UnlinkRmOvrlpSave: 1
Flags: HMW
LayerCount: 2
Fore
SplineSet
314 96 m 1
 314.125 -51.8872180451 314.25 -88.4436090228 318 -125 c 1
 325 -174 l 1
 237 -174 l 1
 244 -125 l 1
 249.4 -85.6553030303 249.4 -65.5643939394 250 96 c 1
 314 96 l 1
EndSplineSet
Refer: 1524 9898 N 1 0 0 1 0 71 2
EndChar
StartChar: uni26B7
Encoding: 9911 9911 2430
Width: 393
Flags: HW
LayerCount: 2
Fore
SplineSet
134 33 m 0
 96 33 71 0 71 -34 c 0
 71 -72 95 -131 149 -131 c 0
 184 -131 209 -95 209 -60 c 0
 209 -35 195 33 134 33 c 0
111 84 m 1
 110 245 109 405 108 566 c 1
 171 566 l 1
 169 374 l 1
 302 506 l 2
 307 511 312 512 317 512 c 0
 320 512 327 512 333 505 c 2
 354 480 l 2
 358 475 360 472 360 466 c 0
 360 460 357 455 353 451 c 2
 238 335 l 2
 234 331 232 325 232 320 c 0
 232 315 234 310 238 306 c 2
 354 189 l 2
 359 183 361 178 361 174 c 0
 361 168 357 163 354 159 c 2
 337 139 l 1
 333 136 328 133 322 133 c 0
 318 133 313 135 308 140 c 2
 196 248 l 2
 192 252 186 256 180 256 c 0
 174 256 169 252 169 241 c 2
 169 84 l 1
 222 72 274 23 274 -48 c 0
 274 -124 213 -183 139 -183 c 0
 61 -183 6 -120 6 -48 c 0
 6 23 58 73 111 84 c 1
EndSplineSet
EndChar
StartChar: uniE001
Encoding: 57345 57345 2350
Width: 0
Flags: HW
LayerCount: 2
Fore
SplineSet
-52 0.0576171875 m 3
 -52 28.73828125 -28.736328125 52 0 52 c 3
 28.736328125 52 52 28.73828125 52 0.0576171875 c 3
 52 -28.6259765625 28.736328125 -52 0 -52 c 3
 -28.736328125 -52 -52 -28.6259765625 -52 0.0576171875 c 3
EndSplineSet
EndChar
StartChar: uogonek.pcap
Encoding: 57459 57459 1705
Width: 608
UnlinkRmOvrlpSave: 1
Flags: HW
LayerCount: 2
Fore
SplineSet
351.630859375 15.54296875 m 1
 287.447679199 -46.1188656603 277.771484375 -75.4471425755 277.771484375 -132 c 3
 277.771484375 -178.376408535 299.134509604 -205.872070312 326.166015625 -205.872070312 c 3
 341.840568725 -205.872070312 360.660571522 -195.18359375 379.97265625 -171.599609375 c 1
 379.97265625 -171.599609375 391.081054688 -181.926757812 393.771484375 -190 c 1
 370.083847314 -242.788085938 330.174993147 -266 293.771484375 -266 c 3
 248.572780919 -266 208.561523438 -226.657902331 208.561523438 -160.834960938 c 3
 208.561523438 -119.928898898 239.248200448 -40.7982776007 327 23 c 1
 351.630859375 15.54296875 l 1
EndSplineSet
Refer: 663 57367 N 1 0 0 1 0 0 2
EndChar
StartChar: j.smcp
Encoding: 57680 57680 2032
Width: 344
Flags: HW
AnchorPoint: "Top" 182 580 basechar 0
AnchorPoint: "Bottom" 264 -30 basechar 0
LayerCount: 2
Fore
SplineSet
130 496 m 0
 129 500 89 502 38 502 c 1
 44 576 l 1
 88 565 127 563 163 563 c 3
 211 563 257 568 313 576 c 1
 318 500 l 1
 297 501 240 496 240 498 c 0
 231 407 233 322 233 194 c 1
 233 93 239 57 237 21 c 1
 237 -65 177 -121 120 -166 c 0
 104 -179 89 -191 74 -205 c 1
 30 -144 l 1
 50 -131 68 -121 84 -109 c 0
 90 -104 96 -99 101 -93 c 0
 123 -68 135 -29 137 63 c 1
 138 89 131 491 130 496 c 0
EndSplineSet
EndChar
StartChar: ae.smcp
Encoding: 57703 57703 2049
Width: 860
Flags: HW
AnchorPoint: "Bottom" 468 -15 basechar 0
AnchorPoint: "Top" 481 580 basechar 0
LayerCount: 2
Fore
SplineSet
305.84 556.75 m 1
 375.02 554.15 477.7 552.57 580.87 552.57 c 0
 665.76 552.57 743.4 554.21 763.13 559.23 c 1
 784.52 543.81 791.32 534.07 791.32 521.41 c 0
 791.32 506.25 775.15 485.56 773.18 433.38 c 1
 712.69 430.38 l 1
 708.33 453.44 722.46 484.66 709.84 484.99 c 0
 673.56 485.85 612.83 486.75 564.04 486.75 c 0
 548.36 486.75 528.02 486.58 516.2 485.96 c 0
 509.49 485.56 504.87 482.77 504.85 473.38 c 0
 504.65 422.39 504.65 356.24 504.34 308.93 c 1
 537.64 310.24 670.7 309.15 674.59 309.6 c 0
 680.42 310.22 680.27 329.86 687.39 352.59 c 1
 750.82 342.18 l 1
 743.15 316.82 739.64 293.75 739.64 270.09 c 0
 739.64 251.71 742.05 232.77 746.54 211.37 c 1
 686.27 196.9 l 1
 673.87 227.14 679.96 245.46 673.21 245.41 c 0
 648.71 244.9 544.26 244.05 503.39 244.57 c 1
 503.33 183.05 502.7 127.82 503.66 86.9 c 0
 503.98 73.45 509.39 70.76 514.34 70.93 c 0
 542.92 72.28 579.49 71.89 604.09 71.89 c 1
 635.11 71.89 677.44 72.18 705.5 72.54 c 0
 726.61 73.06 731.31 89.94 750.41 127.85 c 1
 806.05 112.78 l 1
 796.65 63.67 791.15 47.42 783.42 1.38 c 1
 707.18 0.52 627.18 2.16 551.3 1.77 c 0
 485.46 1.44 432.93 -1.69 382.54 -12.87 c 1
 368.44 51.05 l 1
 396.74 57.38 419.43 61.78 419.49 68.44 c 1
 419.61 81.23 419.9 116.12 419.99 148.95 c 1
 350.03 149.59 294.14 149.87 204.89 150.74 c 1
 160.63 79.27 l 2
 151.12 64.24 184.4 61.98 202.48 57.35 c 1
 198.68 -7.03 l 1
 173.91 -1.36 132.47 0.72 103 0.72 c 0
 79.12 0.72 55.57 -0.78 35.33 -3.04 c 1
 33.85 12.84 31.57 34.16 28.55 56.75 c 1
 68.28 63.59 71.24 64.44 82.22 81.16 c 2
 335.42 493.62 l 1
 326.51 494.05 312.34 494.7 301.52 495.27 c 1
 305.84 556.75 l 1
405.68 484.46 m 1
 239.53 210.65 l 1
 291.24 210.25 378.78 211.67 420.08 212.3 c 1
 420.16 277.83 419.61 474.75 419.58 477.23 c 0
 419.54 480.99 416.04 483.02 405.68 484.46 c 1
EndSplineSet
EndChar
StartChar: uni021D.smcp
Encoding: 57842 57842 2194
Width: 412
UnlinkRmOvrlpSave: 1
Flags: HW
LayerCount: 2
Fore
SplineSet
236.9 251.940234375 m 1
 286.294641507 241.951064487 372 171.577535861 372 114.301953125 c 3
 372 -1.59053173046 166.23734421 -124.360009251 56.0662109375 -134.4 c 1
 51.98359375 -104.598046875 l 1
 156.041091079 -96.1933117136 290.9 10.5369833128 290.9 99.3 c 3
 290.9 146.038032281 224.111692206 203.453661925 165.966503906 216.88125 c 1
 236.9 251.940234375 l 1
86.400390625 206.422753906 m 1
 181.435333011 231.026223695 272.483398438 281.837614456 272.483398438 367.849023438 c 3
 272.483398438 412.467911391 208.68761784 456.840234375 176.583007812 456.840234375 c 3
 136.099767903 456.840234375 88.3858417309 421.785364554 70.6500976562 362.91953125 c 1
 43 369.091601562 l 1
 49.2636693711 403.980139 54.8312590532 423.28001725 63.1836914062 458.168554687 c 1
 106.368322423 481.882206791 176.651087147 504.8 222.900292969 504.8 c 3
 267.438792164 504.8 349.949902344 440.708365204 349.949902344 392.378515625 c 3
 349.949902344 287.547778415 204.257918013 198.880473714 97.8334960938 180.964160156 c 1
 86.400390625 206.422753906 l 1
EndSplineSet
EndChar
StartChar: uni0259.smcp
Encoding: 57993 57993 2345
Width: 489
Flags: HW
LayerCount: 2
Fore
SplineSet
230.95 -19.95 m 3
 159.9 -19.95 85.6105008585 35.3545245022 60.675 95.2 c 0
 54.55 109.9 36.175 119.7 22.7 120.925 c 1
 22.7 150.325 l 1
 82.2 160.825 311.675 206.15 369.075 220.15 c 1
 369.075 228.257894737 370.3 237.717105263 370.3 245.825 c 3
 370.3 386.7575 282.736046512 443.625 197.875 443.625 c 3
 139.186842105 443.625 90.4881578948 416.235 55.525 387.6 c 1
 32.5 415.875 l 1
 83.95 456.008823529 157.45 498.575 241.975 498.575 c 3
 373.05 498.575 447.775 397.817368421 447.775 267.925 c 3
 447.775 53.55 272.6 -19.95 230.95 -19.95 c 3
245.7 33.725 m 3
 322.522941176 33.725 359.734411765 114.554051907 366.625 189.175 c 1
 326.919431906 181.68077142 168.154333351 148.344456975 128.05 141.25 c 1
 126 141 126 141 122.45 140.55 c 1
 135.561702128 90.4342809605 190.630851064 33.725 245.7 33.725 c 3
EndSplineSet
EndChar
StartChar: Grave
Encoding: 58019 58019 96
Width: 222
Flags: HW
AnchorPoint: "Top" 64 699 mark 0
LayerCount: 2
Fore
SplineSet
102.948242188 766.120117188 m 1
 76.4296875 718.331054688 l 1
 18.9326171873 751.208007812 -45.5947265628 775.111328125 -102.668945312 784.96875 c 1
 -84.0302734378 829.469726562 -54.80859375 872.703125 -54.80859375 872.703125 c 1
 -1.19433593767 849.102539062 68.4033203121 800.3671875 102.948242188 766.120117188 c 1
EndSplineSet
EndChar
StartChar: Tilde
Encoding: 58022 58022 161
Width: 329
Flags: HW
AnchorPoint: "Top" 165 699 mark 0
LayerCount: 2
Fore
SplineSet
3.4677734375 773.708984375 m 1
 34.1845703125 838.190429688 80.576171875 887.192382812 88.337890625 887.192382812 c 3
 132.584960938 887.192382812 211.8671875 840.408203125 226.208007812 840.408203125 c 3
 236.815429688 840.408203125 259.3828125 865.53125 271.751953125 896.178710938 c 1
 328.4140625 872.893554688 l 1
 306.641601562 813.043945312 264.981445312 754.408203125 251.98828125 754.408203125 c 3
 210.068359375 754.408203125 128.362304688 801.74609375 108.59765625 801.74609375 c 3
 95.53125 801.74609375 75.2021484375 769.89453125 61.3798828125 750 c 1
 3.4677734375 773.708984375 l 1
EndSplineSet
EndChar
StartChar: Breve.cyrillic
Encoding: 58087 58087 1369
Width: 321
Flags: HW
AnchorPoint: "Top" 161 699 mark 0
LayerCount: 2
Fore
SplineSet
161 783 m 3
 186.133660862 783 206.016042781 791.055555556 222 812 c 0
 230.953042208 822.842790535 225.516515594 839.035272285 234 849 c 0
 246.764884967 862.119465104 261.396849855 867 282 867 c 3
 304.566469864 867 327 854.568907705 327 835 c 3
 327 764.661080451 238.315068493 727 161 727 c 3
 83.6849315069 727 -5 764.661080451 -5 835 c 3
 -5 854.568907705 17.9320530278 867 41 867 c 3
 61.6031501455 867 76.2351150335 862.119465104 89 849 c 0
 97.4834844065 839.035272285 92.046957792 822.842790535 101 812 c 0
 116.721925134 791.055555556 136.278366365 783 161 783 c 3
EndSplineSet
EndChar
StartChar: f.alt
Encoding: 58119 58119 1189
Width: 330
Flags: HW
AnchorPoint: "Top" 208 735 basechar 0
AnchorPoint: "Bottom" 145 -15 basechar 0
LayerCount: 2
Back
SplineSet
298 749 m 3
 335 749 357 733 389 696 c 1
 395.40625 662.90234375 357.966796875 626.404296875 333 612 c 1
 302 646 291 670 266 670 c 3
 210 670 196 639 184 556 c 0
 183 549 181 529 180 498 c 1
 229.92 499 275.04 501 324 503 c 1
 324 433 l 1
 274.039215686 435 226.960784314 437 177 439 c 1
 176 394.292207792 170 324.162337662 170 304 c 3
 170 232.601036269 176.057692308 133.740932642 185 92 c 0
 188.872453669 71.1432480337 199 65 219 64 c 0
 236.777777778 63 257.222222222 62 275 61 c 1
 270 -8 l 1
 227 -3 167 1 118 1 c 1
 87.2956521739 1 38.9130434783 -4 11 -7 c 1
 9 59 l 1
 21.16 60 35.6 59 47 62 c 0
 66 65 74 69 75 82 c 0
 82.5 137.30726257 87 213.631284916 87 280 c 3
 87 306.761363636 87 387.9375 85 437 c 1
 61 436 35 434 8 433 c 1
 8 503 l 1
 33 502 60 500 82 499 c 1
 80 534 79 545 79 558 c 3
 79 614 126 656 178 697 c 0
 208 721 261 749 298 749 c 3
EndSplineSet
Fore
SplineSet
272 749 m 3
 305.696428571 749 344.857142857 740.245283019 374 720 c 1
 379.262035439 686.9025597 348.508684053 650.404092479 328 636 c 1
 297 655.931034483 265 670 240 670 c 3
 210.756097561 670 195.795049829 638.565348805 184 556 c 0
 183 549 181 529 180 498 c 1
 229.92 499 275.04 501 324 503 c 1
 324 433 l 1
 274.039215686 435 226.960784314 437 177 439 c 1
 176 394.292207792 170 324.162337662 170 304 c 3
 170 232.601036269 177.20703125 132.970703125 185 91 c 0
 188.872070312 70.1435546875 199.006835938 64.125 219 63 c 0
 236.77734375 62 257.22265625 61 275 60 c 1
 270 -9 l 1
 227 -4 167 0 118 0 c 1
 87.2958984375 0 38.9130859375 -5 11 -8 c 1
 9 58 l 1
 21.16015625 59 35.3564453125 59.1611328125 47 61 c 0
 66 64 73.248046875 68.080078125 75 81 c 0
 82.5 136.307617188 87 213.631284916 87 280 c 3
 87 306.761363636 87 387.9375 85 437 c 1
 61 436 35 434 8 433 c 1
 8 503 l 1
 33 502 60 500 82 499 c 1
 80 534 79 545 79 558 c 3
 79 614 120.489888745 650.223961791 169 697 c 0
 194.339158788 721.43336923 240.241666667 749 272 749 c 3
EndSplineSet
EndChar
StartChar: two.smaller
Encoding: 58360 58360 2448
Width: 319
Flags: HW
LayerCount: 2
Fore
SplineSet
18.1416015625 212.2265625 m 1
 42.894568312 247.806640625 78.0524755459 276.796875 131.422851562 276.796875 c 3
 190.646693166 276.796875 235.75390625 236.090958674 235.75390625 185.977539062 c 3
 235.75390625 133.589758036 134.029567392 78.3344910577 129 69 c 1
 129.691444749 66.796875 200.314987535 68.7333984375 200.607421875 70.578125 c 1
 222.368074965 71.1259516601 233.61276148 85.5839194553 243.75 94.00390625 c 1
 284.967773438 54.560546875 l 1
 284.967773438 54.560546875 242.09405694 14.3791084971 240.006835938 -9.556640625 c 1
 217.931640625 1.251953125 177.700195312 1.3125 130.135742188 1.3125 c 1
 81.3276564147 1.3125 36.0276271105 0.2646484375 32.0234375 -0.41796875 c 1
 15.560546875 55.921875 l 1
 35.5154348051 75.2322368558 150 137.682782054 150 183 c 3
 150 206.48001743 129.558964043 212 116 212 c 3
 92.594301221 212 76.9755915725 197.880169731 66 180 c 1
 18.1416015625 212.2265625 l 1
EndSplineSet
EndChar
StartChar: eight.smaller
Encoding: 58366 58366 2454
Width: 292
UnlinkRmOvrlpSave: 1
Flags: HW
LayerCount: 2
Fore
SplineSet
136.506835938 234.4140625 m 3
 122.534179688 234.4140625 109 219.376953125 109 204 c 3
 109 179.514648438 256 140.071289062 256 80.416015625 c 3
 256 25.533203125 199.490234375 -3.125 134.478515625 -3.125 c 3
 84.3544921875 -3.125 38.0244140625 18.63671875 38.0244140625 63.392578125 c 3
 38.0244140625 146.774414062 174 165.428710938 174 199 c 3
 174 213.840820312 160.640625 234.4140625 136.506835938 234.4140625 c 3
144.493164062 284.02734375 m 3
 192.59765625 284.02734375 243.225585938 262.700195312 243.225585938 214.1640625 c 3
 243.225585938 144.159179688 108 118.73046875 108 80 c 3
 108 65.2197265625 129.735351562 52.732421875 153.788085938 52.732421875 c 3
 174.189453125 52.732421875 180 65.9326171875 180 71 c 3
 180 88.6982421875 166.840820312 101.252929688 139.823242188 117.08984375 c 0
 94.4140625 143.70703125 45.0185546875 159.365234375 45.0185546875 204.76953125 c 3
 45.0185546875 254.087890625 102.657226562 284.02734375 144.493164062 284.02734375 c 3
EndSplineSet
EndChar
StartChar: onetenth.afrc
Encoding: 58445 58445 1417
Width: 533
Flags: HW
LayerCount: 2
Fore
SplineSet
359.571289062 215.83984375 m 3
 331.259469034 215.83984375 308.201171875 186.58203125 308.201171875 156.658203125 c 3
 308.201171875 98.7607421875 339.326492957 56.84375 380.858398438 56.84375 c 3
 416.884862035 56.84375 433.659179688 91.2880859375 433.659179688 117.775390625 c 3
 433.659179688 172.75 407.083976775 215.83984375 359.571289062 215.83984375 c 3
375.01953125 274.151367188 m 3
 443.382322684 274.151367188 500 212.850585938 500 134.481445312 c 3
 500 49.9804687502 436.302443735 -1.1904296875 368.203125 -1.1904296875 c 3
 298.011963828 -1.1904296875 238.540039062 55.1728515625 238.540039062 134.115234375 c 3
 238.540039062 215.9609375 306.74189078 274.151367188 375.01953125 274.151367188 c 3
61.5517578125 270.82421875 m 1
 93.5270069313 267.98046875 163.158626575 269.096679688 195.346679688 277.969726562 c 9
 196.58984375 221.599609375 l 1
 169.217975913 218.41015625 170.435924621 217.375 166.943359375 207.462890625 c 0
 165.748046875 200.946289062 160.2890625 161.966796875 160.2890625 136.087890625 c 3
 160.2890625 105.815429688 164 65.93359375 165.743164062 60.05859375 c 0
 168.672762603 54.7646484375 181.837542243 55.1015625 199.797851562 54.755859375 c 9
 198.931640625 -2 l 1
 155.548912186 2.0263671875 100.538695115 2.53125 54.93359375 -2 c 9
 53.2021484375 54.0625 l 1
 67.4416917986 54.9853515625 78.4093636703 54.3330078125 85.427734375 62.47265625 c 0
 89.6318359375 67.8359375 94.8876953125 80.1025390625 94.8876953125 136.087890625 c 3
 94.8876953125 191.926757812 92.228515625 203.887695312 88.99609375 209.481445312 c 0
 86.2392983503 213.090820312 87.5824227674 214.029296875 60.814453125 214.525390625 c 9
 61.5517578125 270.82421875 l 1
EndSplineSet
Refer: 1392 8321 N 1 0 0 1 142 496 2
Refer: 1961 58113 N 0.469 0 0 0.875 32 342 2
LCarets2: 3 0 0 0
Ligature2: "'afrc' Nut Fractions lookup 23-1" uni2152
Ligature2: "'afrc' Nut Fractions lookup 23-1" one.numerator fraction one.denom zero.denom
Substitution2: "'zero' Slashed Zero lookup 22-1" onetenth.afrcalt
EndChar
StartChar: eight.small
Encoding: 58459 58459 2464
Width: 335
UnlinkRmOvrlpSave: 1
Flags: HW
LayerCount: 2
Fore
SplineSet
157.535722657 299.523964844 m 3
 139.737539521 299.523964844 122.563984375 282.658420649 122.563984375 261.468339844 c 3
 122.563984375 215.982712293 294.497851562 180.045288288 294.497851562 97.2421484375 c 3
 294.497851562 36.7199809856 238.871722437 -4.81724609375 157.2478125 -4.81724609375 c 3
 95.169304532 -4.81724609375 42.6233789062 25.9738877071 42.6233789062 82.1377148437 c 3
 42.6233789062 178.279139931 205.054921875 206.333677928 205.054921875 254.248222656 c 3
 205.054921875 277.292253988 186.165295697 299.523964844 157.535722657 299.523964844 c 3
164.599726562 351.855878906 m 3
 210.214599049 351.855878906 276.664980469 332.812194516 276.664980469 265.43453125 c 3
 276.664980469 182.397178037 116.28 155.689166137 116.28 98.36 c 3
 116.28 79.4864866307 140.668305527 52.9605859375 178.306230469 52.9605859375 c 3
 204.199719932 52.9605859375 216.36 69.9959660547 216.36 84.5 c 3
 216.36 109.710880931 201.209247606 124.742924481 171.895058594 142.813671875 c 0
 109.819575758 182.279802626 54.9626757812 205.148362796 54.9626757812 256.298398437 c 3
 54.9626757812 318.986998847 120.459691985 351.855878906 164.599726562 351.855878906 c 3
EndSplineSet
EndChar
StartChar: three.pcap
Encoding: 58521 58521 2616
Width: 490
Flags: HW
LayerCount: 2
Back
SplineSet
91.6611328125 -123.62890625 m 5xd0
 263.54708969 -65.6119174511 326.293945312 -9.55870690353 326.293945312 55.8349609375 c 7xd0
 326.293945312 132.962610287 272.884319617 159.036243076 233.853515625 184.943359375 c 1
 216.486177207 173.91254081 165.236529373 147.880763098 130.74609375 138.388671875 c 1
 99.5302734375 183.491210938 l 1
 195.67312775 235.645170291 291.3671875 280.544268662 291.3671875 362.170898438 c 3
 291.3671875 397.750300104 261.169822076 425.580624023 228.697865625 425.580624023 c 3
 171.56986123 425.580624023 138.932906104 388.97669248 111.177351855 364.872159278 c 1
 73.9510619628 402.511373926 l 1
 99.8139851562 444.115723535 179.711400684 507.384854834 249.019701513 507.384854834 c 3
 331.194224707 507.384854834 382.790434278 448.02138086 382.790434278 381.367524072 c 7xe0
 382.790434278 297.559056728 330.329719465 261.564348048 306.267578125 240.3359375 c 1
 349.172675672 214.649459822 417.740234375 165.614198351 417.740234375 68.4609375 c 3
 417.740234375 -55.4290682166 213.870190824 -148.784580583 118 -177.099609375 c 1
 91.6611328125 -123.62890625 l 5xd0
EndSplineSet
Fore
SplineSet
91.6611328125 29.37109375 m 1
 260.242759965 51.7538474856 323.293945312 103.244304097 323.293945312 164.834960938 c 3
 323.293945312 206.516106135 287.640696936 220.606758232 261.5859375 234.607421875 c 1
 239.547370308 225.788690604 174.513294265 204.977247573 130.74609375 197.388671875 c 1
 99.5302734375 242.491210938 l 1
 210.67312775 281.21845031 291.3671875 314.558548585 291.3671875 375.170898438 c 3
 291.3671875 408.506128842 261.170003524 434.581054688 228.698242188 434.581054688 c 3
 171.570240689 434.581054688 138.933287217 397.976809836 111.177734375 373.872070312 c 1
 73.951171875 411.51171875 l 1
 99.8140536781 453.115896174 179.71134134 516.384765625 249.01953125 516.384765625 c 3
 331.193916257 516.384765625 382.790039062 458.905470677 382.790039062 394.3671875 c 3
 382.790039062 331.158149179 348.656171469 304.01064258 333 288 c 1
 365.615962913 271.330643554 417.740234375 239.508987735 417.740234375 176.4609375 c 3
 417.740234375 75.2742948773 290.870190824 -17.9734283513 118 -24.099609375 c 1
 91.6611328125 29.37109375 l 1
EndSplineSet
EndChar
StartChar: six.pcap
Encoding: 58524 58524 2619
Width: 520
Flags: HW
LayerCount: 2
Fore
SplineSet
337.26171875 532.342773438 m 1
 337.26171875 532.342773438 357.1640625 475.459960938 361.741210938 470 c 1
 209.14453125 390.231445312 164.249023438 324.436523438 164.249023438 200.365234375 c 3
 164.249023438 151.625 198.842773438 59.248046875 282.751953125 59.248046875 c 3
 324.586914062 59.248046875 382.893554688 90.4072265625 382.893554688 138.869140625 c 3
 382.893554688 208.2109375 327.486328125 230.865234375 282.913085938 230.865234375 c 3
 264.478515625 230.865234375 255.477539062 223.344726562 246.741210938 219 c 1
 213.798828125 271.385742188 l 1
 231.323242188 291.42578125 258.814453125 310.665039062 301.397460938 310.665039062 c 3
 399.712890625 310.665039062 467 236.305664062 467 150.193359375 c 3
 467 60.2333984375 378.146484375 -17.0537109375 266.8359375 -17.0537109375 c 3
 121.948242188 -17.0537109375 75.4384765625 108.845703125 75.4384765625 182.24609375 c 3
 75.4384765625 330.713867188 155.467773438 446.494140625 337.26171875 532.342773438 c 1
EndSplineSet
EndChar
StartChar: uniF591
Encoding: 62865 62865 2570
Width: 666
Flags: HW
LayerCount: 2
Fore
SplineSet
363 121 m 1
 363.125 -26.8876953125 363.25 -88.443359375 367 -125 c 1
 374 -174 l 1
 286 -174 l 1
 293 -125 l 1
 298.400390625 -85.6552734375 298.400390625 -40.564453125 299 121 c 1
 363 121 l 1
160 19 m 1
 180 14 l 1
 194.416992188 10.021484375 266.624023438 8 330.87890625 8 c 3
 391.133789062 8 452.360351562 10.30859375 479 15 c 1
 500 19 l 1
 500 -62 l 1
 479 -58.123046875 l 1
 452.201171875 -51.287109375 390.52734375 -47.97265625 330.443359375 -47.97265625 c 3
 263.151367188 -47.97265625 197.7265625 -51.6923828125 179 -58.888671875 c 1
 160 -64 l 1
 160 19 l 1
541.51953125 176.700195312 m 1
 511.849609375 232.513671875 394.975585938 374.1640625 318 474.299804688 c 1
 218.836914062 349.139648438 156.358398438 259.797851562 100.48046875 176.700195312 c 1
 541.51953125 176.700195312 l 1
315 573 m 1
 355 573 l 1
 460.208822787 427.5467955 605 232 666 154 c 1
 652 106 l 1
 17 106 l 1
 0 150 l 1
 85.3302541193 254.267059292 209.190083949 424.885041767 315 573 c 1
EndSplineSet
EndChar
StartChar: uniF595
Encoding: 62869 62869 2574
Width: 792
Flags: HW
LayerCount: 2
Fore
SplineSet
180 337 m 1
 542 337.872070312 l 2
 679.532226562 338.203125 642.6875 306 689 306 c 3
 706.970703125 306 714.4375 310.23828125 716 332 c 1
 783 324 l 1
 781.514648438 268 745.051757812 230 699 230 c 3
 611.771484375 230 644.193359375 279 557 279 c 2
 164 279 l 1
 180 337 l 1
EndSplineSet
Refer: 2578 9651 N 1 0 0 1 0 0 2
EndChar
StartChar: NameMe.question
Encoding: 65536 -1 1387
Width: 333
Flags: HW
LayerCount: 2
Fore
SplineSet
51 389 m 1
 53 402 54 413 54 423 c 3
 54 466 39 483 39 491 c 3
 39 496 45 499 65 502 c 1
 86 470 93 470 123 470 c 3
 198 470 273 418 273 340 c 3
 273 220 195 214 185 210 c 0
 158 200 144 184 141 155 c 9
 141 155 128 154 123 154 c 1
 115 217 109 267 145 283 c 0
 164 290 246 274 246 331 c 3
 246 373 168 396 51 389 c 1
EndSplineSet
Refer: 48 46 N 0.929057 0 0 0.987278 39 -2 2
EndChar
